<svg xmlns="http://www.w3.org/2000/svg" width="426.313" height="429.5" viewBox="0 0 426.313 429.5">
  <g id="Group_1404" data-name="Group 1404" transform="translate(-241 -1218)">
    <path id="Path_62" data-name="Path 62" d="M275.806,0C388.625,0,429.5,99.463,429.5,212.281S328.173,426.313,215.354,426.313,0,340.615,0,227.806,162.988,0,275.806,0Z" transform="translate(667.313 1218) rotate(90)" fill="#f9f9f9" opacity="0.549"/>
    <g id="Group_140" data-name="Group 140" transform="translate(331.833 1315.322)">
      <g id="Group_139" data-name="Group 139" transform="translate(0 0)">
        <g id="Group_50" data-name="Group 50" transform="translate(0 218.238)">
          <path id="Path_97" data-name="Path 97" d="M-128.248,363.4c-34.644,0-67.217-.788-91.715-2.219-25.412-1.484-38.3-3.4-38.3-5.689s12.885-4.2,38.3-5.69c24.5-1.43,57.071-2.218,91.715-2.218s67.215.789,91.715,2.218c25.412,1.485,38.3,3.4,38.3,5.69s-12.885,4.2-38.3,5.689C-61.033,362.608-93.6,363.4-128.248,363.4Zm0-15.147c-34.632,0-67.189.788-91.676,2.218-35.851,2.094-37.667,4.551-37.667,5.022s1.816,2.927,37.667,5.022c24.486,1.43,57.044,2.218,91.676,2.218s67.19-.788,91.676-2.218c35.85-2.094,37.667-4.551,37.667-5.022s-1.817-2.927-37.667-5.022C-61.059,349.037-93.617,348.249-128.248,348.249Z" transform="translate(258.26 -347.58)" fill="gray"/>
        </g>
        <g id="Group_138" data-name="Group 138" transform="translate(9.187)">
          <g id="Group_87" data-name="Group 87">
            <g id="Group_51" data-name="Group 51" transform="translate(31.383 9.856)" opacity="0.2" style="mix-blend-mode: multiply;isolation: isolate">
              <path id="Path_98" data-name="Path 98" d="M-173.967,83.362a23.473,23.473,0,0,1-13.8-4.482,23.508,23.508,0,0,1-9.531-15.4,23.928,23.928,0,0,1-.3-3.769l0-.088a23.45,23.45,0,0,1,3.406-12.146.648.648,0,0,1,.087-.138q.495-.814.979-1.485a23.512,23.512,0,0,1,15.4-9.531,24.042,24.042,0,0,1,3.769-.3l.213,0A23.474,23.474,0,0,1-160.1,40.49a23.512,23.512,0,0,1,9.531,15.4,24.021,24.021,0,0,1,.3,3.77v.048A23.518,23.518,0,0,1-153.669,71.9a.647.647,0,0,1-.088.14q-.491.807-.978,1.483a23.512,23.512,0,0,1-15.4,9.531A23.949,23.949,0,0,1-173.967,83.362Zm.055-46.679a23.385,23.385,0,0,0-3.7.3,22.848,22.848,0,0,0-14.968,9.262c-.312.433-.631.916-.972,1.475l-.064.1a22.845,22.845,0,0,0-3.312,11.839,23.3,23.3,0,0,0,.3,3.711,22.848,22.848,0,0,0,9.262,14.968,22.808,22.808,0,0,0,13.408,4.355,23.31,23.31,0,0,0,3.721-.3,22.846,22.846,0,0,0,14.968-9.263c.314-.436.633-.918.973-1.474l.064-.1a22.843,22.843,0,0,0,3.313-11.839l0-.06a24.075,24.075,0,0,0-.3-3.651,22.843,22.843,0,0,0-9.263-14.967,22.812,22.812,0,0,0-13.263-4.348Zm-.185,45.678-.358-.026a8.453,8.453,0,0,1-4.206-1.544c-2.507-1.721-4.623-4.712-6.116-8.649l-.173-.453H-174.1Zm-9.878-10a17.016,17.016,0,0,0,5.693,7.882,7.938,7.938,0,0,0,3.517,1.394V72.358Zm10.212,10V71.689h10.869l-.171.452c-2,5.3-5.2,8.913-8.8,9.925a7.664,7.664,0,0,1-1.539.267Zm.669-10v9.274a6.888,6.888,0,0,0,1.047-.209h0c3.289-.926,6.254-4.218,8.181-9.065Zm-3.985,9.858-1.813-.408a22.591,22.591,0,0,1-8.287-3.741,22.687,22.687,0,0,1-5.648-5.859l-.345-.52h7.852l.08.221c1.5,4.151,3.714,7.318,6.391,9.156Zm-14.834-9.858a22.022,22.022,0,0,0,5.126,5.167,21.988,21.988,0,0,0,6.4,3.194,20.281,20.281,0,0,1-5.4-8.361Zm21.188,9.838,1.532-1.007c2.671-1.757,4.993-5.053,6.537-9.28l.08-.22h7.871l-.346.52c-.163.243-.325.487-.5.726a22.61,22.61,0,0,1-13.389,8.86Zm8.616-9.838a20.862,20.862,0,0,1-5.374,8.36,21.953,21.953,0,0,0,11.393-8.175c.045-.061.088-.123.132-.185Zm7.6-1h-7.95l.143-.438A36.59,36.59,0,0,0-160.6,60.182l0-.33h9.339l-.007.341a22.552,22.552,0,0,1-3.144,11Zm-7.031-.669h6.649a21.883,21.883,0,0,0,2.945-10.165h-7.994A37.412,37.412,0,0,1-161.54,70.686Zm-1.24.669h-10.984v-11.5h12.834l0,.338a36.235,36.235,0,0,1-1.77,10.937Zm-10.315-.669h9.833a35.525,35.525,0,0,0,1.654-10.165H-173.1Zm-1,.669h-10.965l-.077-.227a34.421,34.421,0,0,1-1.623-7.8c-.095-1.013-.15-2.068-.165-3.137l0-.339H-174.1Zm-10.484-.669h9.816V60.521h-11.487c.021.935.073,1.857.157,2.745A33.878,33.878,0,0,0-184.582,70.686Zm-.857.669h-7.928l-.1-.165a22.528,22.528,0,0,1-2.843-7.874,22.978,22.978,0,0,1-.286-3.122l-.008-.342h9.338l0,.33c.013,1.089.069,2.158.165,3.177a35.425,35.425,0,0,0,1.515,7.56Zm-7.545-.669h6.63a36.44,36.44,0,0,1-1.407-7.265c-.088-.934-.142-1.907-.162-2.9h-7.992a22.212,22.212,0,0,0,.267,2.689A21.872,21.872,0,0,0-192.984,70.686Zm41.724-11.167H-160.6l0-.33c-.014-1.089-.069-2.158-.165-3.177a35.435,35.435,0,0,0-1.515-7.56l-.141-.437h7.929l.1.165a22.538,22.538,0,0,1,2.843,7.874,22.978,22.978,0,0,1,.286,3.123Zm-8.679-.669h7.992a22.206,22.206,0,0,0-.266-2.689,21.882,21.882,0,0,0-2.663-7.477h-6.631A36.383,36.383,0,0,1-160.1,55.95C-160.014,56.883-159.959,57.857-159.939,58.85Zm-.99.669h-12.835v-11.5H-162.8l.077.227a34.459,34.459,0,0,1,1.623,7.8c.095,1.012.15,2.067.165,3.137ZM-173.1,58.85h11.486c-.02-.936-.073-1.857-.156-2.745a33.892,33.892,0,0,0-1.515-7.421H-173.1Zm-1,.669h-12.835l0-.338a36.194,36.194,0,0,1,1.77-10.937l.076-.228H-174.1Zm-12.156-.669h11.488V48.684H-184.6A35.577,35.577,0,0,0-186.254,58.85Zm-1.009.669H-196.6l.007-.342a22.558,22.558,0,0,1,3.144-11l.1-.164h7.95l-.143.438a36.6,36.6,0,0,0-1.712,10.735Zm-8.653-.669h7.994a37.4,37.4,0,0,1,1.6-10.166h-6.649A21.9,21.9,0,0,0-195.916,58.85Zm41.227-11.169h-7.852l-.08-.22c-1.5-4.153-3.714-7.318-6.391-9.157l-1.75-1.147,1.8.406a22.6,22.6,0,0,1,8.281,3.739h0a22.67,22.67,0,0,1,5.648,5.86Zm-7.384-.669h6.125a22.02,22.02,0,0,0-5.126-5.167h0a21.971,21.971,0,0,0-6.4-3.195A20.272,20.272,0,0,1-162.072,47.013Zm-.839.669h-10.852V37.01l.358.026A8.447,8.447,0,0,1-169.2,38.58c2.507,1.721,4.622,4.712,6.116,8.649Zm-10.184-.669h9.21a17.014,17.014,0,0,0-5.694-7.881,7.922,7.922,0,0,0-3.516-1.394Zm-1,.669h-10.869l.17-.452c2-5.3,5.2-8.913,8.8-9.925h0a7.7,7.7,0,0,1,1.539-.266l.358-.025Zm-9.9-.669h9.229V37.74a6.945,6.945,0,0,0-1.047.209h0C-179.1,38.874-182.067,42.166-184,47.013Zm-1.289.669h-7.871l.346-.519c.163-.244.325-.487.5-.726a22.616,22.616,0,0,1,13.389-8.86l1.789-.4-1.532,1.007c-2.672,1.758-4.993,5.054-6.537,9.281Zm-6.617-.669h6.15a20.846,20.846,0,0,1,5.375-8.36,21.955,21.955,0,0,0-11.393,8.175C-191.815,46.889-191.858,46.951-191.9,47.013Z" transform="translate(197.602 -36.014)" fill="gray"/>
            </g>
            <g id="Group_61" data-name="Group 61" transform="translate(10.613 44.338)">
              <g id="Group_52" data-name="Group 52" transform="translate(9.479)">
                <path id="Path_99" data-name="Path 99" d="M-3.539,139.186H-214.483V87.57H-3.539Zm-210.275-.669H-4.208V88.239H-213.814Z" transform="translate(214.483 -87.57)" fill="gray"/>
              </g>
              <g id="Group_53" data-name="Group 53" transform="translate(4.739 4.739)">
                <path id="Path_100" data-name="Path 100" d="M-10.625,146.273H-221.57V94.656H-10.625ZM-220.9,145.6H-11.294V95.325H-220.9Z" transform="translate(221.57 -94.656)" fill="gray"/>
              </g>
              <g id="Group_54" data-name="Group 54" transform="translate(0 9.479)">
                <path id="Path_101" data-name="Path 101" d="M-17.712,153.359H-228.656V101.743H-17.712Zm-210.275-.669H-18.381V102.412H-227.987Z" transform="translate(228.656 -101.743)" fill="gray"/>
              </g>
              <g id="Group_55" data-name="Group 55" transform="translate(10.032 19.512)">
                <path id="Path_102" data-name="Path 102" d="M-22.777,148.295H-213.656V116.743H-22.777Zm-190.21-.669H-23.446V117.412H-212.987Z" transform="translate(213.656 -116.743)" fill="gray"/>
              </g>
              <g id="Group_56" data-name="Group 56" transform="translate(168.245 19.512)">
                <path id="Path_103" data-name="Path 103" d="M24.682,148.295H22.9V116.743h1.784Zm-1.115-.669h.446V117.412h-.446Z" transform="translate(-22.898 -116.743)" fill="gray"/>
              </g>
              <g id="Group_57" data-name="Group 57" transform="translate(14.772 23.769)">
                <path id="Path_104" data-name="Path 104" d="M-204.786,146.146h-1.783V123.108h1.783Zm-1.114-.669h.445v-21.7h-.445Z" transform="translate(206.569 -123.108)" fill="gray"/>
              </g>
              <g id="Group_60" data-name="Group 60" transform="translate(178.803 28.955)">
                <g id="Group_58" data-name="Group 58" transform="translate(0)">
                  <path id="Path_105" data-name="Path 105" d="M43.952,141.4a5.267,5.267,0,1,1,3.726-1.541A5.237,5.237,0,0,1,43.952,141.4Zm0-9.866a4.6,4.6,0,1,0,3.253,1.346A4.589,4.589,0,0,0,43.952,131.531Zm0,8.529a3.927,3.927,0,1,1,2.78-1.15A3.909,3.909,0,0,1,43.952,140.061Zm0-7.192a3.257,3.257,0,1,0,2.307.954A3.243,3.243,0,0,0,43.952,132.869Z" transform="translate(-38.684 -130.863)" fill="gray"/>
                </g>
                <g id="Group_59" data-name="Group 59" transform="translate(7.284 7.283)">
                  <path id="Path_106" data-name="Path 106" d="M53.956,147.136a1,1,0,0,1-.71-.294l-3.378-3.378a1,1,0,1,1,1.419-1.419l3.378,3.378a1,1,0,0,1-.71,1.713Zm-3.378-4.715a.33.33,0,0,0-.236.1.335.335,0,0,0,0,.473l3.378,3.378a.343.343,0,0,0,.474,0,.336.336,0,0,0,0-.473l-3.378-3.378A.336.336,0,0,0,50.578,142.421Z" transform="translate(-49.575 -141.752)" fill="gray"/>
                </g>
              </g>
            </g>
            <g id="Group_68" data-name="Group 68" transform="translate(127.949 13.536)">
              <g id="Group_62" data-name="Group 62" transform="translate(0)">
                <rect id="Rectangle_72" data-name="Rectangle 72" width="21.697" height="1.19" fill="gray"/>
              </g>
              <g id="Group_63" data-name="Group 63" transform="translate(0 2.216)">
                <rect id="Rectangle_73" data-name="Rectangle 73" width="21.697" height="1.19" fill="gray"/>
              </g>
              <g id="Group_64" data-name="Group 64" transform="translate(0 4.432)">
                <rect id="Rectangle_74" data-name="Rectangle 74" width="21.697" height="1.19" fill="gray"/>
              </g>
              <g id="Group_65" data-name="Group 65" transform="translate(0 6.648)">
                <rect id="Rectangle_75" data-name="Rectangle 75" width="21.697" height="1.19" fill="gray"/>
              </g>
              <g id="Group_66" data-name="Group 66" transform="translate(0 8.864)">
                <rect id="Rectangle_76" data-name="Rectangle 76" width="21.697" height="1.19" fill="gray"/>
              </g>
              <g id="Group_67" data-name="Group 67" transform="translate(0.001 11.081)">
                <rect id="Rectangle_77" data-name="Rectangle 77" width="14.378" height="1.19" fill="gray"/>
              </g>
            </g>
            <g id="Group_75" data-name="Group 75" transform="translate(0 109.168)">
              <g id="Group_69" data-name="Group 69">
                <rect id="Rectangle_78" data-name="Rectangle 78" width="23.074" height="1.003" fill="gray"/>
              </g>
              <g id="Group_70" data-name="Group 70" transform="translate(0 1.419)">
                <rect id="Rectangle_79" data-name="Rectangle 79" width="23.074" height="1.003" fill="gray"/>
              </g>
              <g id="Group_71" data-name="Group 71" transform="translate(0 2.838)">
                <rect id="Rectangle_80" data-name="Rectangle 80" width="23.074" height="1.003" fill="gray"/>
              </g>
              <g id="Group_72" data-name="Group 72" transform="translate(0 4.257)">
                <rect id="Rectangle_81" data-name="Rectangle 81" width="23.074" height="1.003" fill="gray"/>
              </g>
              <g id="Group_73" data-name="Group 73" transform="translate(0 5.676)">
                <rect id="Rectangle_82" data-name="Rectangle 82" width="23.074" height="1.003" fill="gray"/>
              </g>
              <g id="Group_74" data-name="Group 74" transform="translate(0 7.095)">
                <rect id="Rectangle_83" data-name="Rectangle 83" width="14.751" height="1.003" fill="gray"/>
              </g>
            </g>
            <g id="Group_79" data-name="Group 79" transform="translate(91.815 8.508)">
              <g id="Group_76" data-name="Group 76" transform="translate(0 8.313)">
                <path id="Path_107" data-name="Path 107" d="M-102.683,69.5a4.567,4.567,0,0,1-4.562-4.561V50.99a4.567,4.567,0,0,1,4.562-4.562,4.566,4.566,0,0,1,4.561,4.562V64.935A4.566,4.566,0,0,1-102.683,69.5Zm0-22.4a3.9,3.9,0,0,0-3.893,3.893V64.935a3.9,3.9,0,0,0,3.893,3.893,3.9,3.9,0,0,0,3.893-3.893V50.99A3.9,3.9,0,0,0-102.683,47.1Z" transform="translate(107.245 -46.428)" fill="gray"/>
              </g>
              <g id="Group_77" data-name="Group 77" transform="translate(10.593)">
                <path id="Path_108" data-name="Path 108" d="M-86.844,65.38a4.567,4.567,0,0,1-4.562-4.561V38.561A4.567,4.567,0,0,1-86.844,34a4.567,4.567,0,0,1,4.561,4.562V60.819A4.566,4.566,0,0,1-86.844,65.38Zm0-30.712a3.9,3.9,0,0,0-3.893,3.893V60.819a3.9,3.9,0,0,0,3.893,3.893,3.9,3.9,0,0,0,3.893-3.893V38.561A3.9,3.9,0,0,0-86.844,34.668Z" transform="translate(91.406 -33.999)" fill="gray"/>
              </g>
              <g id="Group_78" data-name="Group 78" transform="translate(21.187 16.625)">
                <path id="Path_109" data-name="Path 109" d="M-71.006,73.612a4.567,4.567,0,0,1-4.561-4.561V63.418a4.567,4.567,0,0,1,4.561-4.562,4.567,4.567,0,0,1,4.562,4.562v5.633A4.566,4.566,0,0,1-71.006,73.612Zm0-14.087A3.9,3.9,0,0,0-74.9,63.418v5.633a3.9,3.9,0,0,0,3.893,3.893,3.9,3.9,0,0,0,3.893-3.893V63.418A3.9,3.9,0,0,0-71.006,59.525Z" transform="translate(75.567 -58.856)" fill="gray"/>
              </g>
            </g>
            <g id="Group_84" data-name="Group 84" transform="translate(189.966 89.07)">
              <g id="Group_81" data-name="Group 81" transform="translate(3.848 0.279)">
                <g id="Group_80" data-name="Group 80">
                  <path id="Path_110" data-name="Path 110" d="M76.166,186.921h-18.1L45.26,154.87Zm-17.651-.669H74.591L47.146,157.79Z" transform="translate(-45.26 -154.87)" fill="gray"/>
                </g>
              </g>
              <g id="Group_82" data-name="Group 82" transform="translate(0 0.291)" style="mix-blend-mode: multiply;isolation: isolate">
                <path id="Path_111" data-name="Path 111" d="M47.153,170.96H39.506l4.882-16.072Zm-6.745-.669H46.36l-2.153-12.508Z" transform="translate(-39.506 -154.888)" fill="gray"/>
              </g>
              <g id="Group_83" data-name="Group 83" transform="translate(4.457)">
                <path id="Path_112" data-name="Path 112" d="M46.17,199.341V154.453L58.981,186.53Zm.669-41.41v39.8L58.2,186.368Z" transform="translate(-46.17 -154.453)" fill="gray"/>
              </g>
            </g>
            <g id="Group_86" data-name="Group 86" transform="translate(180.361)">
              <g id="Group_85" data-name="Group 85" transform="translate(0)">
                <path id="Path_113" data-name="Path 113" d="M69.76,21.278H32.311a7.2,7.2,0,0,0-7.165,7.164V47.781a7.2,7.2,0,0,0,7.165,7.164H59.79l-.2,6.764,6.939-6.764H69.76a7.2,7.2,0,0,0,7.164-7.164V28.442A7.2,7.2,0,0,0,69.76,21.278Zm-38.3,8.241a2.01,2.01,0,0,1,2-2h8.618a1.991,1.991,0,0,1,0,3.983H33.463A2,2,0,0,1,31.459,29.519ZM67.632,48.232h-14.9a1.979,1.979,0,1,1,0-3.957h14.9a1.979,1.979,0,0,1,0,3.957Zm0-8.367H35.467a1.979,1.979,0,1,1,0-3.957H67.632a1.979,1.979,0,0,1,0,3.957Zm0-8.366H48.594a1.991,1.991,0,0,1,0-3.983H67.632a1.991,1.991,0,0,1,0,3.983Z" transform="translate(-25.146 -21.278)" fill="none" stroke="gray" stroke-miterlimit="10" stroke-width="1"/>
              </g>
            </g>
          </g>
          <g id="Group_137" data-name="Group 137" transform="translate(28.398 31.799)">
            <g id="Group_98" data-name="Group 98">
              <g id="Group_88" data-name="Group 88" transform="translate(70.097 17.285)">
                <path id="Path_114" data-name="Path 114" d="M-63.122,155.44q-.84,0-1.682-.039a36.025,36.025,0,0,1-25-11.659l-.064-.068-.018-.092-7.376-36.717.032-.088a36.083,36.083,0,0,1,7.257-12l.1-.11H-36.4l.1.11a36.087,36.087,0,0,1,7.257,12h0a35.957,35.957,0,0,1,2.14,14.062,36.32,36.32,0,0,1-9.559,22.9A36.2,36.2,0,0,1-63.122,155.44Zm-26.124-12.082a35.362,35.362,0,0,0,24.473,11.375A35.541,35.541,0,0,0-36.951,143.29a35.652,35.652,0,0,0,9.382-22.482,35.293,35.293,0,0,0-2.1-13.8h0a35.407,35.407,0,0,0-7.024-11.672H-89.575a35.409,35.409,0,0,0-6.991,11.583Z" transform="translate(97.259 -94.666)" fill="#1ea2ff" stroke="#1ea2ff" stroke-width="1"/>
              </g>
              <g id="Group_89" data-name="Group 89" transform="translate(67.955 29.176)">
                <path id="Path_115" data-name="Path 115" d="M-37.619,149.739H-90.762l-.1-.108a35.975,35.975,0,0,1-9.559-26.239,36.318,36.318,0,0,1,2.134-10.727l.08-.22h68.026l.08.219a35.957,35.957,0,0,1,2.14,14.062l-.334-.015.334.015a36.32,36.32,0,0,1-9.559,22.9Zm-52.85-.669h52.556A35.653,35.653,0,0,0-28.629,126.7a35.284,35.284,0,0,0-2.021-13.582H-97.738a35.665,35.665,0,0,0-2.014,10.309A35.308,35.308,0,0,0-90.469,149.071Z" transform="translate(100.46 -112.446)" fill="#1ea2ff" stroke="#1ea2ff" stroke-width="1"/>
              </g>
              <g id="Group_90" data-name="Group 90" transform="translate(67.955 5.522)" opacity="0.4">
                <path id="Path_116" data-name="Path 116" d="M-64.183,149.616q-.84,0-1.682-.039a36.025,36.025,0,0,1-25-11.659,35.973,35.973,0,0,1-9.559-26.239,36.318,36.318,0,0,1,2.134-10.727,36.084,36.084,0,0,1,7.257-12,36.22,36.22,0,0,1,28.5-11.834A36.066,36.066,0,0,1-37.358,88.951a36.087,36.087,0,0,1,7.257,12,35.952,35.952,0,0,1,2.14,14.061l-.334-.015.334.015a36.32,36.32,0,0,1-9.559,22.9A36.2,36.2,0,0,1-64.183,149.616ZM-64.2,77.748A35.534,35.534,0,0,0-90.536,89.4a35.422,35.422,0,0,0-7.122,11.781,35.654,35.654,0,0,0-2.094,10.529,35.311,35.311,0,0,0,9.382,25.755,35.362,35.362,0,0,0,24.536,11.444,35.535,35.535,0,0,0,27.822-11.444,35.652,35.652,0,0,0,9.382-22.482,35.293,35.293,0,0,0-2.1-13.8A35.416,35.416,0,0,0-37.852,89.4,35.4,35.4,0,0,0-62.561,77.785Q-63.384,77.748-64.2,77.748Z" transform="translate(100.46 -77.079)" fill="#1ea2ff" stroke="#1ea2ff" stroke-width="1"/>
              </g>
              <g id="Group_91" data-name="Group 91" transform="translate(68.449 6.683)" opacity="0.4">
                <path id="Path_117" data-name="Path 117" d="M-95.453,131.9l-.205-.369c-.268-.48-.524-.969-.771-1.461a35.79,35.79,0,0,1-3.287-10.122l-.007-.041.015-.172.1-.093,44.766-40.824.176.046A35.9,35.9,0,0,1-43.5,83.967l.348.238Zm-3.574-11.886a35.147,35.147,0,0,0,3.2,9.757c.18.356.364.712.554,1.064l51.045-46.551a35.245,35.245,0,0,0-10.432-4.727Z" transform="translate(99.723 -78.815)" fill="#1ea2ff" stroke="#1ea2ff" stroke-width="1"/>
              </g>
              <g id="Group_92" data-name="Group 92" transform="translate(76.234 16.041)" opacity="0.4">
                <path id="Path_118" data-name="Path 118" d="M-74.53,151.835l-.2-.088a36.4,36.4,0,0,1-13.147-9.883l-.207-.245,53.525-48.812.226.227a36.467,36.467,0,0,1,8.636,14l.07.207ZM-87.157,141.68a35.745,35.745,0,0,0,12.5,9.368L-26.4,107.041a35.813,35.813,0,0,0-8.183-13.307Z" transform="translate(88.083 -92.807)" fill="#1ea2ff" stroke="#1ea2ff" stroke-width="1"/>
              </g>
              <g id="Group_93" data-name="Group 93" transform="translate(62.459)">
                <path id="Path_119" data-name="Path 119" d="M-66.842,152.379A41.8,41.8,0,0,1-103.088,131.5,41.82,41.82,0,0,1-87.808,74.44a41.5,41.5,0,0,1,31.7-4.178A41.5,41.5,0,0,1-30.743,89.72h0a41.5,41.5,0,0,1,4.179,31.7,41.5,41.5,0,0,1-19.458,25.368A41.52,41.52,0,0,1-66.842,152.379Zm-.141-82.887a40.859,40.859,0,0,0-20.491,5.528,41.15,41.15,0,0,0-15.035,56.15,41.152,41.152,0,0,0,56.152,15.038A40.832,40.832,0,0,0-27.21,121.246a40.839,40.839,0,0,0-4.113-31.192h0A40.831,40.831,0,0,0-56.284,70.908,41.33,41.33,0,0,0-66.983,69.492Zm.126,74.148a33.056,33.056,0,0,1-28.662-16.507h0A33.068,33.068,0,0,1-83.436,82.009a32.81,32.81,0,0,1,25.065-3.3A32.817,32.817,0,0,1-38.313,94.092a33.07,33.07,0,0,1-12.08,45.127A32.826,32.826,0,0,1-66.856,143.639ZM-94.939,126.8a32.4,32.4,0,0,0,44.212,11.841A32.4,32.4,0,0,0-38.892,94.426,32.147,32.147,0,0,0-58.544,79.351,32.143,32.143,0,0,0-83.1,82.589,32.4,32.4,0,0,0-94.939,126.8Z" transform="translate(108.679 -68.823)" fill="#1ea2ff" stroke="#1ea2ff" stroke-width="1"/>
              </g>
              <g id="Group_96" data-name="Group 96" transform="translate(6.207 84.08)">
                <g id="Group_94" data-name="Group 94">
                  <path id="Path_120" data-name="Path 120" d="M-189.206,199.632l-.18-.082c-.132-.06-3.228-1.491-3.382-3.825l-.016-.252,2.638-.937,5.916,1.379Zm-2.863-3.7c.284,1.526,2.194,2.62,2.785,2.926l3.5-2.616-4.325-1.008Z" transform="translate(192.784 -194.536)" fill="#1ea2ff" stroke="#1ea2ff" stroke-width="1"/>
                </g>
                <g id="Group_95" data-name="Group 95" transform="translate(2.994 1.081)">
                  <path id="Path_121" data-name="Path 121" d="M-184.494,202.9l-3.814-3.13,4.843-3.616,3.177,3.946Zm-2.729-3.105,2.771,2.274,3.184-2.12-2.313-2.873Z" transform="translate(188.308 -196.152)" fill="#1ea2ff" stroke="#1ea2ff" stroke-width="1"/>
                </g>
              </g>
              <g id="Group_97" data-name="Group 97" transform="translate(0 55.788)">
                <path id="Path_122" data-name="Path 122" d="M-195.3,200.982a10.507,10.507,0,0,1-2.073-.2,5.785,5.785,0,0,1-3.709-2.475,5.787,5.787,0,0,1-.873-4.373,6.471,6.471,0,0,1,.2-.739,11.514,11.514,0,0,1,1.406-2.76,14.79,14.79,0,0,1,1.755-2.13,17.248,17.248,0,0,1,4.175-3.052c1.033-.587,2.068-1.181,3.1-1.775,1.883-1.081,3.767-2.162,5.666-3.217,5.118-2.9,10.745-5.985,17.7-9.722,6.3-3.357,12.174-6.393,17.964-9.279,5-2.485,11.6-5.714,18.336-8.651a4.5,4.5,0,0,1,5.912,2.322,4.469,4.469,0,0,1-1.449,5.407h0c-5.91,4.367-12.006,8.471-16.656,11.558-5.4,3.576-10.963,7.149-17.013,10.924-6.724,4.165-12.211,7.494-17.27,10.478-1.865,1.118-3.777,2.23-5.627,3.305q-1.543.9-3.083,1.8a17.227,17.227,0,0,1-4.727,2.089,14.737,14.737,0,0,1-2.716.455C-194.592,200.965-194.931,200.982-195.3,200.982Zm65.438-48.078a3.8,3.8,0,0,0-1.522.319c-6.722,2.931-13.313,6.155-18.3,8.636-5.784,2.885-11.654,5.916-17.946,9.271-6.953,3.734-12.575,6.821-17.692,9.715-1.9,1.055-3.779,2.134-5.66,3.214q-1.554.892-3.111,1.78a16.618,16.618,0,0,0-4.025,2.939,14.119,14.119,0,0,0-1.675,2.033,10.867,10.867,0,0,0-1.326,2.6,5.841,5.841,0,0,0-.177.657,5.124,5.124,0,0,0,.773,3.871,5.124,5.124,0,0,0,3.283,2.191,10.924,10.924,0,0,0,2.917.15,14.118,14.118,0,0,0,2.592-.435,16.606,16.606,0,0,0,4.553-2.015c1.033-.606,2.062-1.2,3.091-1.8,1.879-1.092,3.758-2.184,5.621-3.3,5.057-2.982,10.541-6.308,17.259-10.47,6.044-3.771,11.6-7.341,17-10.913,4.643-3.083,10.729-7.18,16.628-11.539h0a3.8,3.8,0,0,0,1.233-4.6A3.829,3.829,0,0,0-129.858,152.9Z" transform="translate(202.065 -152.235)" fill="#1ea2ff" stroke="#1ea2ff" stroke-width="1"/>
              </g>
            </g>
            <g id="Group_134" data-name="Group 134" transform="translate(3.807 17.844)">
              <g id="Group_99" data-name="Group 99" transform="translate(0 31.496)">
                <path id="Path_123" data-name="Path 123" d="M-193.6,179.731l-.088-.292c-.471-1.558-.841-3.121-1.168-4.5-.349-1.611-.637-3.1-.883-4.575-.264-1.6-.445-3.145-.556-4.712a23.951,23.951,0,0,1,.13-5.093l.04-.229c.027-.163.056-.324.1-.5l.037-.155c.048-.2.1-.413.142-.546l.325-1.129c.21-.735.441-1.431.72-2.265.568-1.635,1.13-3.081,1.716-4.423.7-1.6,1.368-2.995,2.035-4.274.37-.7.757-1.39,1.154-2.079.463-.8.85-1.427,1.295-2.089l.185-.276,4.983,3.305-.171.276c-.32.518-.688,1.148-1.035,1.739l-.037.064c-.355.621-.708,1.252-1.045,1.893-.749,1.378-1.4,2.646-1.98,3.881-.579,1.259-1.193,2.606-1.754,3.981-.094.245-.195.5-.294.747-.169.423-.337.845-.492,1.272l-.375,1.024c-.043.111-.063.179-.082.244s-.031.1-.051.162a2.053,2.053,0,0,0-.057.213c-.014.06-.028.121-.044.179a20.174,20.174,0,0,0-.38,3.947c-.037,1.406.013,2.806.076,4.36.059,1.395.159,2.887.3,4.435.077,1.1.186,2.22.292,3.3l.14,1.46Zm5.369-36.211c-.362.55-.7,1.1-1.087,1.773s-.775,1.364-1.141,2.056c-.658,1.264-1.317,2.649-2.014,4.232-.58,1.326-1.134,2.755-1.7,4.37-.276.822-.5,1.512-.71,2.234l-.328,1.137c-.04.13-.088.327-.132.51l-.038.159c-.039.157-.064.3-.089.45l-.041.229a23.405,23.405,0,0,0-.122,4.939c.11,1.542.289,3.062.549,4.644.244,1.459.53,2.944.876,4.537.3,1.278.645,2.721,1.069,4.163l1.989-.408-.084-.86c-.106-1.087-.215-2.21-.292-3.314-.14-1.552-.241-3.055-.3-4.461-.062-1.509-.113-2.98-.076-4.4a20.793,20.793,0,0,1,.4-4.1l.042-.169a2.736,2.736,0,0,1,.076-.283l.042-.132c.023-.078.048-.159.1-.287l.373-1.018c.156-.433.328-.862.5-1.291.1-.249.2-.5.294-.746.568-1.393,1.185-2.748,1.769-4.018.591-1.249,1.243-2.529,2-3.913.338-.644.695-1.281,1.055-1.912l.039-.068c.29-.494.594-1.015.874-1.476Z" transform="translate(196.373 -142.594)" fill="gray"/>
              </g>
              <g id="Group_100" data-name="Group 100" transform="translate(7.693 171.353)">
                <path id="Path_124" data-name="Path 124" d="M-182.936,353.686a6.638,6.638,0,0,1-1.451-.2.459.459,0,0,1-.333-.312l-.151-.03.132-.08a.459.459,0,0,1,.2-.4c.572-.375,1.972-1.209,2.687-.89a.751.751,0,0,1,.44.6,1.022,1.022,0,0,1-.31.949A1.775,1.775,0,0,1-182.936,353.686Zm.623-1.075a2.267,2.267,0,0,0-.493.157.849.849,0,0,0,.47-.116A.07.07,0,0,0-182.313,352.611Z" transform="translate(184.871 -351.703)" fill="gray"/>
              </g>
              <g id="Group_101" data-name="Group 101" transform="translate(7.824 170.126)">
                <path id="Path_125" data-name="Path 125" d="M-184.463,352.927l.005-.1a.46.46,0,0,1-.217-.389,3.609,3.609,0,0,1,.686-2.314.963.963,0,0,1,.787-.246.762.762,0,0,1,.7.609c.163.812-.981,2.061-1.488,2.349l-.078.043-.238.017-.075-.033Z" transform="translate(184.675 -349.868)" fill="gray"/>
              </g>
              <g id="Group_102" data-name="Group 102" transform="translate(30.985 171.354)">
                <path id="Path_126" data-name="Path 126" d="M-147.717,353.688a9.15,9.15,0,0,1-1.7-.193.455.455,0,0,1-.344-.3l-.28-.047.255-.122a.46.46,0,0,1,.247-.385c.734-.383,2.522-1.23,3.261-.83a.727.727,0,0,1,.383.593,1.017,1.017,0,0,1-.332.879A2.184,2.184,0,0,1-147.717,353.688Zm.865-1.079a3.268,3.268,0,0,0-.661.158A1.275,1.275,0,0,0-146.852,352.608Z" transform="translate(150.045 -351.705)" fill="gray"/>
              </g>
              <g id="Group_103" data-name="Group 103" transform="translate(31.241 170.127)">
                <path id="Path_127" data-name="Path 127" d="M-149.206,352.9a.457.457,0,0,1-.224-.059l-.06.035.01-.068a.454.454,0,0,1-.183-.4,3.679,3.679,0,0,1,.9-2.235,1.231,1.231,0,0,1,.927-.29.761.761,0,0,1,.763.627c.137.839-1.3,2.061-1.944,2.352l-.066.03Zm1.156-2.1a.347.347,0,0,0-.128.072,1.193,1.193,0,0,0-.3.447A3.168,3.168,0,0,0-148.049,350.8Z" transform="translate(149.663 -349.87)" fill="gray"/>
              </g>
              <g id="Group_104" data-name="Group 104" transform="translate(19.074 13.918)">
                <path id="Path_128" data-name="Path 128" d="M-160.117,132.51q-.477,0-1.023-.035c-5.916-.385-6.647-3.683-6.675-3.822l-.039-.2.152-.127c2.04-1.707,1.279-7.494.871-10.6l-.184-1.415,7.116,6.855-.064.2c-.382,1.193-.742,2.713-.133,3.88a3.578,3.578,0,0,0,2.289,1.644l.086.027.061.066c.05.055,1.223,1.343.717,2.405C-157.3,132.139-158.344,132.51-160.117,132.51Zm-6.991-3.817c.228.639,1.342,2.81,6.011,3.114,2.71.176,3.388-.367,3.55-.708.241-.5-.27-1.271-.548-1.6a4.206,4.206,0,0,1-2.594-1.945,5.619,5.619,0,0,1,.027-4.195l-5.443-5.244C-165.662,121.523-165.084,126.712-167.108,128.693Z" transform="translate(167.854 -116.312)" fill="gray"/>
              </g>
              <g id="Group_105" data-name="Group 105" transform="translate(31.506 6.448)">
                <path id="Path_129" data-name="Path 129" d="M-148.685,107.489a.58.58,0,0,1-.275-.069.577.577,0,0,1-.282-.344.577.577,0,0,1,.045-.443,2.762,2.762,0,0,1,2.093-1.489.585.585,0,0,1,.629.53.583.583,0,0,1-.528.627,1.621,1.621,0,0,0-1.171.882A.58.58,0,0,1-148.685,107.489Zm1.621-1.853h0Z" transform="translate(149.266 -105.143)" fill="gray"/>
              </g>
              <g id="Group_106" data-name="Group 106" transform="translate(33.385 9.494)">
                <path id="Path_130" data-name="Path 130" d="M-145.406,114.716a2.235,2.235,0,0,1-.325-.021l-.258-.039-.468-4.959.8,1.568a10.971,10.971,0,0,0,1.671,2.433l.241.223-.217.245A1.916,1.916,0,0,1-145.406,114.716Zm-.078-1.823.109,1.154a1.554,1.554,0,0,0,.657-.137A8.661,8.661,0,0,1-145.484,112.893Z" transform="translate(146.457 -109.697)" fill="gray"/>
              </g>
              <g id="Group_107" data-name="Group 107" transform="translate(33.102 9.39)">
                <path id="Path_131" data-name="Path 131" d="M-146.007,111.729a1,1,0,0,1-.867-1.015h0a1.335,1.335,0,0,1,.132-.736.763.763,0,0,1,.594-.432c.46-.047.872.4.93,1.013a1.328,1.328,0,0,1-.131.736.762.762,0,0,1-.593.432C-145.965,111.728-145.985,111.729-146.007,111.729Zm-.2-1.078c.025.272.164.406.2.409a.487.487,0,0,0,.122-.439c-.025-.272-.164-.405-.2-.409a.487.487,0,0,0-.122.439Z" transform="translate(146.881 -109.542)" fill="gray"/>
              </g>
              <g id="Group_108" data-name="Group 108" transform="translate(33.1 8.736)">
                <path id="Path_132" data-name="Path 132" d="M-145.913,110.056a.828.828,0,0,1-.539-.211l-.431-.362,2.341-.92-.423.8a1.36,1.36,0,0,1-.8.681A.752.752,0,0,1-145.913,110.056Z" transform="translate(146.883 -108.563)" fill="gray"/>
              </g>
              <g id="Group_109" data-name="Group 109" transform="translate(25.629 160.303)">
                <path id="Path_133" data-name="Path 133" d="M-152.178,347.908h-5.876l.367-12.726h5.876Zm-5.187-.669h4.537l.328-11.389h-4.537Z" transform="translate(158.054 -335.182)" fill="gray"/>
              </g>
              <g id="Group_110" data-name="Group 110" transform="translate(1.933 160.303)">
                <path id="Path_134" data-name="Path 134" d="M-187.6,347.908h-5.882l1.766-12.726h5.882Zm-5.114-.669h4.531l1.581-11.389h-4.531Z" transform="translate(193.483 -335.182)" fill="gray"/>
              </g>
              <g id="Group_111" data-name="Group 111" transform="translate(0.573 171.758)">
                <path id="Path_135" data-name="Path 135" d="M-182.665,358.9c-1.187,0-2.432-.049-3.531-.092-.94-.037-1.827-.072-2.549-.072-1.514,0-2.488.043-3.43.083-.663.029-1.323.057-2.159.072a1.19,1.19,0,0,1-.892-.4,1.13,1.13,0,0,1-.28-.907l.666-4.628a.747.747,0,0,1,.746-.643h5.85a1.694,1.694,0,0,1,1.085.4c.241.2.461.408.681.611,1.022.953,1.988,1.853,5.274,2.56a1.117,1.117,0,0,1,.779,1.3A2.036,2.036,0,0,1-182.665,358.9Zm-6.08-.833c.734,0,1.629.035,2.576.073,1.092.043,2.33.092,3.5.092,1.075,0,1.521-.6,1.575-1.115.027-.255-.051-.537-.253-.58-3.467-.746-4.546-1.752-5.589-2.725-.211-.2-.422-.393-.655-.589a1.021,1.021,0,0,0-.655-.241h-5.85a.078.078,0,0,0-.084.069l-.666,4.628a.462.462,0,0,0,.119.369.456.456,0,0,0,.379.175c.829-.015,1.483-.043,2.142-.072C-191.256,358.105-190.275,358.063-188.746,358.063Z" transform="translate(195.517 -352.308)" fill="gray"/>
              </g>
              <g id="Group_112" data-name="Group 112" transform="translate(24.085 171.758)">
                <path id="Path_136" data-name="Path 136" d="M-146.55,358.9c-1.186,0-2.717-.049-4.068-.092-1.158-.037-2.251-.073-2.974-.073-1.515,0-2.489.043-3.43.083-.663.029-1.322.057-2.158.072a1.189,1.189,0,0,1-.892-.4,1.128,1.128,0,0,1-.28-.907l.666-4.628a.747.747,0,0,1,.747-.643h5.85a1.694,1.694,0,0,1,1.085.4,13.9,13.9,0,0,0,6.916,3.172,1.117,1.117,0,0,1,.778,1.3A2.035,2.035,0,0,1-146.55,358.9Zm-7.041-.833c.732,0,1.832.035,2.995.073,1.346.043,2.871.092,4.046.092,1.075,0,1.52-.6,1.575-1.115.027-.255-.052-.537-.253-.58a14.51,14.51,0,0,1-7.206-3.313,1.021,1.021,0,0,0-.655-.241h-5.85a.078.078,0,0,0-.084.069l-.667,4.628a.463.463,0,0,0,.12.369.46.46,0,0,0,.378.175c.829-.015,1.483-.043,2.142-.072C-156.1,358.105-155.12,358.063-153.591,358.063Z" transform="translate(160.363 -352.308)" fill="gray"/>
              </g>
              <g id="Group_115" data-name="Group 115" transform="translate(2.74 160.307)">
                <g id="Group_113" data-name="Group 113" transform="translate(23.056)">
                  <path id="Path_137" data-name="Path 137" d="M-151.927,342.071H-157.8l.2-6.884h5.878Zm-5.189-.669h4.539l.159-5.546h-4.54Z" transform="translate(157.805 -335.187)" fill="gray"/>
                </g>
                <g id="Group_114" data-name="Group 114">
                  <path id="Path_138" data-name="Path 138" d="M-186.393,342.071h-5.884l.958-6.884h5.884Zm-5.116-.669h4.533l.772-5.546h-4.534Z" transform="translate(192.277 -335.187)" fill="gray"/>
                </g>
              </g>
              <g id="Group_116" data-name="Group 116" transform="translate(3.673 26.412)">
                <path id="Path_139" data-name="Path 139" d="M-183.227,149.008l-7.655-5.112.118-.259c.378-.833,3.773-8.148,6.558-8.6,2.855-.458,4.838,2.465,5.736,5.353.311,1-.058,2.372-1.1,4.066a26.822,26.822,0,0,1-3.467,4.357Zm-6.809-5.351,6.72,4.489a26.012,26.012,0,0,0,3.178-4.036h0c.921-1.5,1.277-2.717,1.029-3.518-.815-2.621-2.558-5.278-4.991-4.892C-186.083,136.02-188.946,141.323-190.037,143.657Z" transform="translate(190.882 -134.992)" fill="gray"/>
              </g>
              <g id="Group_117" data-name="Group 117" transform="translate(10.332 33.707)">
                <path id="Path_140" data-name="Path 140" d="M-179.93,152.621l-1-.66.025-.205c.32-2.616,1.323-4.995,2.439-5.783l.1-.073.124.013c.7.072,1.364.687,1.973,1.827l.09.168-.1.163a26.834,26.834,0,0,1-3.467,4.357Zm-.28-.989.19.126a26.514,26.514,0,0,0,3.077-3.871c-.418-.739-.842-1.179-1.239-1.287C-179.06,147.334-179.906,149.429-180.209,151.632Z" transform="translate(180.925 -145.899)" fill="gray"/>
              </g>
              <g id="Group_118" data-name="Group 118" transform="translate(10.016 25.852)">
                <path id="Path_141" data-name="Path 141" d="M-157.949,168.571l-.284-.019c-8.373-.548-17.028-1.11-21.1-1.371l-.348-.022.037-.347c.91-8.578,1.249-13.881-1.7-31.665l-.056-.335.335-.05a62.5,62.5,0,0,1,9.1-.6,67.321,67.321,0,0,1,9.624.626c4.064.638,8.685,1.895,8.731,1.907.943.4.849,4.537-.213,11.369h0c-.367,2.357-.782,4.692-1.27,7.19-.748,3.85-1.686,8.237-2.792,13.039Zm-20.994-2.035c4.154.267,12.417.8,20.47,1.33,1.075-4.686,1.991-8.971,2.723-12.74.49-2.505.9-4.847,1.269-7.158v-.007c1.358-8.736.738-10.4.6-10.65-.522-.138-4.787-1.27-8.562-1.863a66.766,66.766,0,0,0-9.531-.618,61.227,61.227,0,0,0-8.651.544C-177.766,152.737-178.06,158.154-178.944,166.536Z" transform="translate(181.397 -134.155)" fill="gray"/>
              </g>
              <g id="Group_119" data-name="Group 119" transform="translate(32.663 38.901)">
                <path id="Path_142" data-name="Path 142" d="M-144.065,162.662l-.441-.858a52.074,52.074,0,0,1-2.907-7.711l-.123-.427h4.572l.36.731v.085c-.369,2.372-.785,4.721-1.277,7.234Zm-2.579-8.327a56.791,56.791,0,0,0,2.3,6.257c.4-2.1.749-4.092,1.06-6.062l-.1-.195Z" transform="translate(147.536 -153.666)" fill="gray"/>
              </g>
              <g id="Group_120" data-name="Group 120" transform="translate(18.825 1.855)">
                <path id="Path_143" data-name="Path 143" d="M-159.2,118.65a7.691,7.691,0,0,1-4.946-1.878c-2.817-2.37-3.152-4.524-3.887-9.244l-.1-.633a7.46,7.46,0,0,1,2.462-6.819,7.244,7.244,0,0,1,6.977-1.465c5.436,1.635,6.9,9.294,6.206,14.21a6.637,6.637,0,0,1-4.21,5.367A6.985,6.985,0,0,1-159.2,118.65Zm-1.713-19.7a6.516,6.516,0,0,0-4.318,1.633,6.794,6.794,0,0,0-2.241,6.211l.1.635c.73,4.686,1.031,6.626,3.657,8.835a6.72,6.72,0,0,0,6.779,1.3,5.974,5.974,0,0,0,3.786-4.836c.643-4.546-.734-11.972-5.736-13.476A7.031,7.031,0,0,0-160.915,98.945Z" transform="translate(168.227 -98.276)" fill="gray"/>
              </g>
              <g id="Group_121" data-name="Group 121" transform="translate(2.098 58.2)">
                <path id="Path_144" data-name="Path 144" d="M-185.493,290.3h-7.744l.062-.387c.058-.367,5.865-36.89,7.134-52.784a194.693,194.693,0,0,0-.234-38.233c-.767-7.9-1.117-11.5,2.784-16.247l.108-.132,16.019,1.035-.012.325c0,.093-.343,9.429-1.137,21.018-.582,8.548-1.59,20.792-3.093,30.58l-.04.254c-2.509,16.1-13.662,53.952-13.774,54.332Zm-6.961-.669h6.461c.958-3.264,11.286-38.618,13.684-54.005l.04-.253c1.5-9.765,2.506-21.989,3.087-30.524.71-10.366,1.057-18.927,1.124-20.672l-15.027-.971c-3.61,4.464-3.29,7.763-2.526,15.626a195.31,195.31,0,0,1,.235,38.351C-186.576,252.222-191.824,285.655-192.454,289.636Z" transform="translate(193.237 -182.521)" fill="gray"/>
              </g>
              <g id="Group_122" data-name="Group 122" transform="translate(19.381 69.479)">
                <path id="Path_145" data-name="Path 145" d="M-163.336,242.929l-.749-3.712c-2.415-11.9-5.722-28.2-.649-39.123l.33-.709.285.728c1.46,3.723,3.056,7.613,4.138,10.22l.03.073-.005.078c-.582,8.548-1.59,20.792-3.093,30.581Zm-1.113-41.826c-4.512,10.715-1.326,26.427,1.018,37.973,1.342-9.384,2.257-20.571,2.8-28.559C-161.639,208.082-163.083,204.562-164.448,201.1Z" transform="translate(167.396 -199.385)" fill="gray"/>
              </g>
              <g id="Group_123" data-name="Group 123" transform="translate(17.331 58.547)">
                <path id="Path_146" data-name="Path 146" d="M-155.053,290.479h-7.671l.011-.345c.011-.367,1.107-36.875.492-52.9-.669-17.452-8.077-53.407-8.152-53.767l-.088-.43,16.154,1.049.044.261c.06.357,6,35.894,5.666,51.621-.351,16.349-6.35,53.849-6.41,54.227Zm-6.981-.669h6.411c.554-3.494,6.023-38.3,6.357-53.854.322-14.951-5.07-47.954-5.613-51.234l-14.75-.958c.844,4.143,7.446,36.98,8.077,53.447C-160.969,252.42-161.923,286.031-162.034,289.811Z" transform="translate(170.461 -183.04)" fill="gray"/>
              </g>
              <g id="Group_124" data-name="Group 124" transform="translate(23.507 162.476)">
                <path id="Path_147" data-name="Path 147" d="M-150.816,342.269h-10l-.407-3.761,11.3-.078Zm-9.4-.669h8.871l.581-2.5-9.715.068Z" transform="translate(161.226 -338.431)" fill="gray"/>
              </g>
              <g id="Group_125" data-name="Group 125" transform="translate(1.119 162.476)">
                <path id="Path_148" data-name="Path 148" d="M-184.656,342.269H-194.7l.08-3.761,10.858-.078Zm-9.361-.669h8.83l.58-2.5-9.359.067Z" transform="translate(194.7 -338.43)" fill="gray"/>
              </g>
              <g id="Group_126" data-name="Group 126" transform="translate(10.431 56.812)">
                <path id="Path_149" data-name="Path 149" d="M-157.927,184.835l-.062,0-22.129-1.438a.719.719,0,0,1-.6-.344.481.481,0,0,1,.009-.478l1.075-1.827a.7.7,0,0,1,.664-.3l21.368,1.388a.754.754,0,0,1,.547.262.5.5,0,0,1,.106.393l-.313,1.876A.626.626,0,0,1-157.927,184.835Zm-22.1-2.1,22.08,1.435a.17.17,0,0,0,.037,0l.277-1.661h-.015l-21.368-1.388a.2.2,0,0,0-.064,0Z" transform="translate(180.777 -180.445)" fill="gray"/>
              </g>
              <g id="Group_127" data-name="Group 127" transform="translate(13.484 56.792)">
                <path id="Path_150" data-name="Path 150" d="M-175.1,183.817h-.043l-.572-.037a.558.558,0,0,1-.406-.2.421.421,0,0,1-.087-.335l.428-2.437a.537.537,0,0,1,.581-.392l.573.037a.554.554,0,0,1,.406.2.419.419,0,0,1,.086.336l-.427,2.436A.52.52,0,0,1-175.1,183.817Zm-.407-.695.315.021.357-2.033-.316-.021Zm.714-2.251h0Z" transform="translate(176.212 -180.415)" fill="gray"/>
              </g>
              <g id="Group_128" data-name="Group 128" transform="translate(27.356 57.692)">
                <path id="Path_151" data-name="Path 151" d="M-154.357,185.164h-.043l-.573-.037a.555.555,0,0,1-.406-.2.417.417,0,0,1-.086-.336l.427-2.435a.527.527,0,0,1,.581-.393l.572.037a.557.557,0,0,1,.406.2.42.42,0,0,1,.086.335l-.427,2.437A.521.521,0,0,1-154.357,185.164Zm-.449-.459h0Zm.041-.237.316.021.357-2.033-.315-.021Z" transform="translate(155.471 -181.76)" fill="gray"/>
              </g>
              <g id="Group_129" data-name="Group 129" transform="translate(33.383 33.683)">
                <path id="Path_152" data-name="Path 152" d="M-125.2,173.317l-.307-.019a28.365,28.365,0,0,1-8.851-1.912,14.185,14.185,0,0,1-4.312-2.665,8.648,8.648,0,0,1-1.814-2.382,4.238,4.238,0,0,1-.24-.526l-.3-.785-.354-1.007c-.9-2.6-1.765-5.243-2.63-8.078-.892-2.863-1.667-5.523-2.37-8.133l-.086-.318,5.758-1.628.094.316c.734,2.463,1.49,5.109,2.309,8.092l2.641,9.507a1.114,1.114,0,0,1,.04.136.386.386,0,0,0,.023.074,3.865,3.865,0,0,0,.66,1.067,10.572,10.572,0,0,0,2.653,2.041A34.288,34.288,0,0,0-125,170.035l.277.083Zm-20.445-25.362c.677,2.5,1.423,5.051,2.277,7.79.863,2.829,1.721,5.463,2.622,8.055l.642,1.762a3.718,3.718,0,0,0,.209.459,7.988,7.988,0,0,0,1.683,2.212,13.572,13.572,0,0,0,4.109,2.534,27.611,27.611,0,0,0,8.332,1.843l.3-2.019a34.331,34.331,0,0,1-7.142-2.916,11.022,11.022,0,0,1-2.825-2.184,4.4,4.4,0,0,1-.758-1.218.777.777,0,0,1-.068-.2l-.157-.536-2.52-9.09c-.783-2.851-1.508-5.394-2.212-7.762Z" transform="translate(146.46 -145.864)" fill="gray"/>
              </g>
              <g id="Group_130" data-name="Group 130" transform="translate(30.517 27.857)">
                <path id="Path_153" data-name="Path 153" d="M-147.9,152.236l-.13-.315c-.421-1.023-4.056-10.066-2.187-12.4,1.968-2.456,3.551-2.883,6.776-1.827,2.8.917,5.581,9.477,5.7,9.842l.093.289Zm1.707-14.416c-1.362,0-2.326.653-3.5,2.119-1.325,1.654,1,8.515,2.156,11.413l9.064-3.9c-.859-2.574-3.2-8.474-5.175-9.121h0A8.379,8.379,0,0,0-146.191,137.82Z" transform="translate(150.746 -137.152)" fill="gray"/>
              </g>
              <g id="Group_131" data-name="Group 131" transform="translate(8.3)">
                <path id="Path_154" data-name="Path 154" d="M-169.42,130.062a17.763,17.763,0,0,1-11.727-4.7c-2.236-2.039-3.147-4-2.711-5.823.809-3.376,6.01-5.278,8.562-6.018-.1-.282-.241-.631-.4-1.018-1.278-3.213-3.925-9.865.083-12.842.276-1.719,1.633-2.974,3.935-3.634,4.232-1.214,10.9-.151,12.225,1.485h0c1.972,2.434.217,4.658-1.333,6.621-.918,1.162-1.784,2.26-1.823,3.273a17.808,17.808,0,0,0,1.359,4.927c1.31,3.657,2.939,8.209,1.921,11.466a8.824,8.824,0,0,1-6.506,5.8A13.741,13.741,0,0,1-169.42,130.062Zm1.962-33.89a14.92,14.92,0,0,0-4.032.5c-2.118.608-3.288,1.691-3.475,3.22l-.018.148-.122.085c-3.746,2.629-1.193,9.048.035,12.133.234.589.419,1.054.524,1.392l.1.33-.333.092c-1.779.491-7.645,2.348-8.43,5.626-.377,1.571.469,3.311,2.511,5.173,4.141,3.776,9.908,5.38,14.692,4.087a8.179,8.179,0,0,0,6.042-5.357c.952-3.042-.636-7.477-1.912-11.041a17.811,17.811,0,0,1-1.4-5.177c.047-1.231.978-2.411,1.966-3.661,1.53-1.938,2.974-3.767,1.338-5.785h0C-160.709,97.017-164.082,96.172-167.457,96.172Z" transform="translate(183.964 -95.502)" fill="gray"/>
              </g>
              <g id="Group_132" data-name="Group 132" transform="translate(13.602 4.029)">
                <path id="Path_155" data-name="Path 155" d="M-171.318,117.132a.5.5,0,0,1-.388-.183c-1.281-1.56-5.546-9.349-3.995-13.223a3.514,3.514,0,0,1,3.1-2.2.5.5,0,0,1,.367.1.5.5,0,0,1,.192.338.5.5,0,0,1-.437.557,2.545,2.545,0,0,0-2.285,1.573c-1.353,3.376,2.718,10.848,3.839,12.213a.5.5,0,0,1-.069.706A.5.5,0,0,1-171.318,117.132Zm-1.2-14.939h0Z" transform="translate(176.036 -101.526)" fill="gray"/>
              </g>
              <g id="Group_133" data-name="Group 133" transform="translate(27.963 9.561)">
                <path id="Path_156" data-name="Path 156" d="M-152.005,115.136a1.635,1.635,0,0,1-1.129-.527,4.749,4.749,0,0,1-1.411-2.756h0a1.872,1.872,0,0,1,.645-1.764,1.6,1.6,0,0,1,1.618-.136c1.282.544,1.734,2.416,1.647,3.571a1.7,1.7,0,0,1-.948,1.535A1.178,1.178,0,0,1-152.005,115.136Zm-1.876-3.366a4.063,4.063,0,0,0,1.209,2.355c.306.292.608.4.849.308a1.076,1.076,0,0,0,.521-.962c.074-.965-.317-2.511-1.241-2.9a.931.931,0,0,0-.954.054,1.23,1.23,0,0,0-.383,1.148Z" transform="translate(154.564 -109.797)" fill="gray"/>
              </g>
            </g>
            <g id="Group_135" data-name="Group 135" transform="translate(52.493 73.52)">
              <path id="Path_157" data-name="Path 157" d="M-118.449,184.274a4.3,4.3,0,0,1-2.842-1.235l-2.289-1.461,1.952-1.068a4.345,4.345,0,0,1,.678-.3h0l4.313-1.464-.693,5.278-.167.077A2.4,2.4,0,0,1-118.449,184.274Zm-3.82-2.652,1.379.883a3.308,3.308,0,0,0,2.949,1.043l.5-3.822-3.295,1.118a3.646,3.646,0,0,0-.573.252Z" transform="translate(123.58 -178.748)" fill="gray"/>
            </g>
            <g id="Group_136" data-name="Group 136" transform="translate(58.038 73.66)">
              <path id="Path_158" data-name="Path 158" d="M-115.289,184.327l.7-5.354,3.391-.017-1.34,4.6Zm1.291-4.688-.5,3.771,1.421-.4.987-3.382Z" transform="translate(115.289 -178.956)" fill="gray"/>
            </g>
          </g>
        </g>
      </g>
    </g>
  </g>
</svg>
