<svg xmlns="http://www.w3.org/2000/svg" width="143" height="143" viewBox="0 0 143 143">
  <path id="Path_2084" data-name="Path 2084" d="M-298.636,68.586c2.257.943,4.518,1.878,6.771,2.829,7.384,3.119,14.777,6.221,22.147,9.374,6.476,2.771,12.928,5.6,19.386,8.407,7.374,3.208,14.738,6.435,22.12,9.625a1.4,1.4,0,0,1,1,1.5q-.017,40.2.033,80.407c0,.578-.278.741-.7.923q-15.5,6.656-31,13.322c-12.546,5.383-25.107,10.731-37.633,16.16a4.552,4.552,0,0,1-3.966,0c-13.645-5.838-27.33-11.586-40.981-17.411-8.87-3.785-17.706-7.651-26.556-11.484-1.969-.853-1.994-.857-2.031-3.033-.064-3.772-.133-7.545-.129-11.318q.042-34,.109-67.993a.878.878,0,0,1,.618-.967q33.741-14.515,67.467-29.063c.972-.419,1.94-.851,2.91-1.277Zm-68.76,33.8c0,.555,0,.943,0,1.33q-.038,37.544-.1,75.087c0,.662.3.864.8,1.082q32.963,14.215,65.92,28.445c.183.079.378.132.631.218,0-.425,0-.741,0-1.056q-.052-26.332-.1-52.663-.023-11.468-.046-22.935c0-.383.047-.724-.454-.94-2.533-1.094-5.031-2.268-7.566-3.357-6.072-2.606-12.159-5.18-18.24-7.766-.259-.11-.522-.209-.882-.352,0,.439,0,.753,0,1.067-.036,5.307-.053,10.615-.117,15.921-.028,2.244-.513,2.577-2.614,1.709-2.626-1.084-5.214-2.263-7.8-3.44-1.938-.882-1.95-.909-1.989-3.083q-.152-8.507-.255-17.016a.886.886,0,0,0-.628-.966q-10.7-4.536-21.388-9.118C-363.891,103.847-365.568,103.155-367.4,102.39Zm70.133,106.149c.356-.14.582-.221.8-.316q33.041-14.21,66.086-28.413a.84.84,0,0,0,.623-.9q-.084-36.773-.14-73.547c0-.943,0-1.885,0-2.952-.827.34-1.478.6-2.121.873q-29.127,12.474-58.253,24.953c-1.988.852-3.949,1.772-5.967,2.543a1.5,1.5,0,0,0-1.1,1.7q.061,37.613.072,75.227Zm24.751-125.776c-.292-.154-.416-.231-.549-.288q-12.5-5.431-25-10.843a1.327,1.327,0,0,0-.888.011c-.89.32-1.764.688-2.635,1.061q-29.838,12.781-59.673,25.571c-1.307.56-2.6,1.152-4,1.775.339.166.552.282.773.377q12.38,5.331,24.77,10.641a1.534,1.534,0,0,0,1.085-.02q30.024-12.811,60.032-25.66C-276.621,84.54-274.645,83.682-272.512,82.762Zm40.033,17.6.023-.228a15.559,15.559,0,0,0-1.446-.8q-11.691-5-23.39-9.99a2.291,2.291,0,0,0-1.958-.044c-.931.414-1.91.719-2.847,1.121Q-291.5,103.023-320.9,115.644c-1.2.516-2.392,1.057-3.713,1.642.487.248.84.451,1.212.613q10.117,4.421,20.236,8.837c.947.414,1.884.857,2.8,1.336.983.514,1.937.849,2.972.125a6.959,6.959,0,0,1,1.253-.69q31.446-13.4,62.9-26.788C-232.987,100.609-232.735,100.48-232.48,100.36ZM-262.2,87.469a9.049,9.049,0,0,0-.983-.659c-1.376-.669-2.778-1.285-4.142-1.978a2.494,2.494,0,0,0-2.17-.114c-2.372.934-4.772,1.8-7.116,2.8q-27.615,11.783-55.21,23.61c-1.2.516-2.4,1.059-3.653,1.616a1.917,1.917,0,0,0,.342.259c2.184.878,4.364,1.765,6.562,2.6a1.458,1.458,0,0,0,.962-.1q3.837-1.588,7.655-3.225,25.953-11.128,51.9-22.265C-266.142,89.2-264.238,88.356-262.2,87.469Zm-68.076,47.7a7.617,7.617,0,0,0,.117-.851c.053-5.208.1-10.417.125-15.625a.861.861,0,0,0-.479-.581c-2.022-.893-4.058-1.754-6.093-2.62-.21-.089-.433-.152-.568-.2,0,5.555,0,11.055.018,16.555a.794.794,0,0,0,.414.558c1.7.783,3.41,1.538,5.124,2.287C-331.226,134.867-330.809,134.985-330.279,135.17Z" transform="translate(370.178 -68.586)" fill="#1ea2ff"/>
</svg>
