<svg xmlns="http://www.w3.org/2000/svg" width="38" height="38" viewBox="0 0 38 38">
  <g id="Group_1848" data-name="Group 1848" transform="translate(-1580 -6883.4)">
    <g id="Group_1840" data-name="Group 1840" transform="translate(1366.4 8120.499)">
      <g id="Group_1839" data-name="Group 1839" transform="translate(213.6 -1237.099)">
        <path id="Path_2055" data-name="Path 2055" d="M230.888-1215.188q0-7.29,0-14.579c0-1.393-.2-1.541-2.089-1.542h-2.472c-2.265,0-2.372.076-2.373,1.662q0,7.169,0,14.338,0,7.41,0,14.821c0,1.18.3,1.385,1.978,1.388q1.461,0,2.921,0c1.764,0,2.032-.189,2.033-1.428Q230.889-1207.858,230.888-1215.188Zm3.424,0q0,7.29,0,14.579c0,1.339.243,1.507,2.152,1.508q1.4,0,2.809,0c1.686,0,1.969-.2,1.969-1.389q0-9.827,0-19.654,0-4.913,0-9.827c0-1.142-.283-1.337-1.914-1.339q-1.4,0-2.809,0c-2.03,0-2.206.13-2.206,1.623Q234.311-1222.437,234.312-1215.187Zm-20.712-9.97q0,5.357,0,10.714c0,1.082.322,1.307,1.854,1.311,1.161,0,2.322.01,3.483,0s1.587-.284,1.588-1.1q.014-10.875,0-21.75c0-.823-.406-1.094-1.577-1.107-1.123-.013-2.247,0-3.371,0-1.689,0-1.978.2-1.978,1.384Q213.6-1230.434,213.6-1225.158Zm31.073,2.863c0,2.629,0,5.258,0,7.887,0,1.028.35,1.269,1.8,1.275,1.2,0,2.395,0,3.592,0,.994,0,1.535-.293,1.534-1.055q-.016-8.048,0-16.1c0-.706-.48-1.031-1.446-1.027-1.235,0-2.47,0-3.7,0-1.435,0-1.769.242-1.771,1.287C244.669-1227.446,244.673-1224.87,244.673-1222.3Z" transform="translate(-213.6 1237.099)" fill="#fff"/>
      </g>
    </g>
  </g>
</svg>
