<svg xmlns="http://www.w3.org/2000/svg" width="164.369" height="39" viewBox="0 0 164.369 39">
  <g id="open-data-institute" transform="translate(-0.35 0.007)">
    <path id="Path_2080" data-name="Path 2080" d="M124.219,30.069h2.372V38.7h-2.372Zm0-3.25h2.372v1.958h-2.372Zm30.718-6.9a4.063,4.063,0,0,1-.479.122c-.171,0-.357.065-.544.081l-.569.081a3.745,3.745,0,0,0-.52.13,1.5,1.5,0,0,0-.455.227,1.032,1.032,0,0,0-.309.357,1.129,1.129,0,0,0-.114.552,1.1,1.1,0,0,0,.114.536.942.942,0,0,0,.317.341,1.389,1.389,0,0,0,.463.179,3.087,3.087,0,0,0,.552.049,2.1,2.1,0,0,0,1.081-.236,1.568,1.568,0,0,0,.569-.561,1.844,1.844,0,0,0,.227-.658,4.438,4.438,0,0,0,0-.528V19.67a1.032,1.032,0,0,1-.374.211m-4.688-3.347a2.827,2.827,0,0,1,.934-.886,4.062,4.062,0,0,1,1.276-.479,7.458,7.458,0,0,1,1.43-.138,9.424,9.424,0,0,1,1.316.089,4.062,4.062,0,0,1,1.219.357,2.437,2.437,0,0,1,.91.78,2.08,2.08,0,0,1,.349,1.259v4.428a9.335,9.335,0,0,0,.065,1.121,2.015,2.015,0,0,0,.236.812H155.5a3.433,3.433,0,0,1-.106-.414,3.786,3.786,0,0,1-.057-.422,3.047,3.047,0,0,1-1.34.812,5.305,5.305,0,0,1-1.568.236,4.217,4.217,0,0,1-1.154-.154,2.624,2.624,0,0,1-.934-.463,2.218,2.218,0,0,1-.626-.812,2.73,2.73,0,0,1-.219-1.154,2.494,2.494,0,0,1,.26-1.211,2.137,2.137,0,0,1,.666-.764,2.941,2.941,0,0,1,.934-.422,9.633,9.633,0,0,1,1.056-.227c.357-.057.707-.1,1.048-.13a6.5,6.5,0,0,0,.918-.154,1.625,1.625,0,0,0,.634-.292.642.642,0,0,0,.219-.561,1.235,1.235,0,0,0-.122-.609.91.91,0,0,0-.333-.349,1.3,1.3,0,0,0-.479-.171,4.16,4.16,0,0,0-.593,0,1.82,1.82,0,0,0-1.1.3,1.349,1.349,0,0,0-.463,1h-2.372a2.714,2.714,0,0,1,.414-1.389m-1.625-1.267v1.625h-1.73v4.249a1.17,1.17,0,0,0,.195.812,1.162,1.162,0,0,0,.812.195h.382l.349-.049v1.8a5.857,5.857,0,0,1-.666.065h-.715a7.06,7.06,0,0,1-1.04-.073,2.486,2.486,0,0,1-.869-.292,1.544,1.544,0,0,1-.593-.617,2.218,2.218,0,0,1-.219-1.048V16.851h-1.438V15.226h1.438V12.675h2.372v2.584ZM139.4,19.873a3.934,3.934,0,0,1-.479.122l-.544.081-.569.081a3.786,3.786,0,0,0-.528.13,1.536,1.536,0,0,0-.455.227,1.007,1.007,0,0,0-.309.357,1.129,1.129,0,0,0-.114.552,1.1,1.1,0,0,0,.114.536.91.91,0,0,0,.317.341,1.438,1.438,0,0,0,.463.179,3.135,3.135,0,0,0,.552.049,2.112,2.112,0,0,0,1.089-.236,1.56,1.56,0,0,0,.569-.561,1.788,1.788,0,0,0,.227-.658,4.235,4.235,0,0,0,.041-.528V19.67a1,1,0,0,1-.374.211m-4.68-3.347a2.835,2.835,0,0,1,.934-.886,4.062,4.062,0,0,1,1.276-.479,7.466,7.466,0,0,1,1.43-.138,9.464,9.464,0,0,1,1.324.089,4.062,4.062,0,0,1,1.219.357,2.437,2.437,0,0,1,.951.78,2.08,2.08,0,0,1,.349,1.259v4.428a8.777,8.777,0,0,0,.065,1.121,2.015,2.015,0,0,0,.236.812h-2.437a3.573,3.573,0,0,1-.106-.414,3.488,3.488,0,0,1-.057-.422,3.079,3.079,0,0,1-1.34.812,5.305,5.305,0,0,1-1.568.236,4.216,4.216,0,0,1-1.154-.154,2.632,2.632,0,0,1-.934-.463,2.153,2.153,0,0,1-.626-.812,2.714,2.714,0,0,1-.227-1.154,2.527,2.527,0,0,1,.26-1.211,2.194,2.194,0,0,1,.666-.764,2.965,2.965,0,0,1,.934-.422,9.634,9.634,0,0,1,1.056-.227c.357-.057.707-.1,1.048-.13a6.5,6.5,0,0,0,.918-.154,1.568,1.568,0,0,0,.634-.292.642.642,0,0,0,.219-.561,1.267,1.267,0,0,0-.122-.609.9.9,0,0,0-.333-.349,1.316,1.316,0,0,0-.479-.171,4.2,4.2,0,0,0-.593,0,1.8,1.8,0,0,0-1.1.3,1.341,1.341,0,0,0-.463,1h-2.372a2.77,2.77,0,0,1,.414-1.389M130.4,22.757a2.437,2.437,0,0,1-1.089,1.007,3.632,3.632,0,0,1-1.527.309,3.7,3.7,0,0,1-1.706-.374,3.4,3.4,0,0,1-1.21-1.016,4.663,4.663,0,0,1-.715-1.479,6.247,6.247,0,0,1-.244-1.739,5.85,5.85,0,0,1,.244-1.682,4.46,4.46,0,0,1,.715-1.43,3.6,3.6,0,0,1,1.194-.991,3.558,3.558,0,0,1,1.665-.374,3.4,3.4,0,0,1,1.462.325,2.535,2.535,0,0,1,1.089.959h0v-4.3h2.372V23.894H130.4Zm-.1-4.265a2.438,2.438,0,0,0-.341-.869,1.909,1.909,0,0,0-.626-.609,1.812,1.812,0,0,0-.967-.236,1.909,1.909,0,0,0-.983.236,1.828,1.828,0,0,0-.642.617,2.665,2.665,0,0,0-.349.877,4.671,4.671,0,0,0-.106,1.024,4.322,4.322,0,0,0,.114,1,2.689,2.689,0,0,0,.374.894,2.048,2.048,0,0,0,.65.634,1.739,1.739,0,0,0,.942.244,1.86,1.86,0,0,0,.975-.236,1.771,1.771,0,0,0,.626-.626,2.73,2.73,0,0,0,.333-.894,5.168,5.168,0,0,0,.1-1.032,5.036,5.036,0,0,0-.1-1.024m48.169,11.577v1.625h-1.73v4.273a.812.812,0,0,0,1,1h.382l.349-.049v1.836a5.858,5.858,0,0,1-.666.065h-.715a6.873,6.873,0,0,1-1.04-.073,2.486,2.486,0,0,1-.869-.292,1.544,1.544,0,0,1-.593-.617,2.226,2.226,0,0,1-.219-1.048V31.653h-1.438V30.069h1.422V27.477h2.372v2.592h1.73ZM169.479,38.7v-1.2h-.049a2.673,2.673,0,0,1-1.17,1.089,3.485,3.485,0,0,1-1.47.333,4.135,4.135,0,0,1-1.56-.252,2.234,2.234,0,0,1-.959-.707,2.778,2.778,0,0,1-.5-1.113,6.953,6.953,0,0,1-.138-1.462V30.069h2.372v4.875a3.022,3.022,0,0,0,.333,1.625,1.292,1.292,0,0,0,1.186.52,1.625,1.625,0,0,0,1.406-.577,3.25,3.25,0,0,0,.431-1.893v-4.55h2.372V38.7Zm-7.068-8.628v1.625h-1.739v4.273a.812.812,0,0,0,1,1h.382l.349-.049v1.836a5.972,5.972,0,0,1-.666.065h-.715a6.93,6.93,0,0,1-1.04-.073,2.437,2.437,0,0,1-.869-.292,1.519,1.519,0,0,1-.593-.617,2.185,2.185,0,0,1-.219-1.048V31.653h-1.438V30.069H158.3V27.477h2.372v2.592h1.73ZM155.667,38.7H153.23V30.069h2.437ZM153.23,26.819h2.437v1.958H153.23Zm-1.535,3.25v1.625H149.98v4.273a.812.812,0,0,0,1,1h.382l.349-.049v1.836a5.971,5.971,0,0,1-.666.065h-.715a6.93,6.93,0,0,1-1.04-.073,2.5,2.5,0,0,1-.869-.292,1.56,1.56,0,0,1-.593-.617,2.226,2.226,0,0,1-.219-1.048V31.653H146.17V30.069h1.438V27.477h2.372v2.592h1.73Zm-11.707,6.5a1.381,1.381,0,0,0,.406.455,1.747,1.747,0,0,0,.577.26,2.648,2.648,0,0,0,.674.081,2.437,2.437,0,0,0,.528-.057,1.7,1.7,0,0,0,.5-.179,1.178,1.178,0,0,0,.374-.333.877.877,0,0,0,.154-.528c0-.357-.236-.626-.707-.812a13.86,13.86,0,0,0-1.982-.536c-.349-.081-.682-.171-1.007-.276a3.526,3.526,0,0,1-.877-.414,2.031,2.031,0,0,1-.617-.65,1.828,1.828,0,0,1-.236-.959,2.592,2.592,0,0,1,.325-1.373,2.438,2.438,0,0,1,.861-.812,3.786,3.786,0,0,1,1.2-.431,7.417,7.417,0,0,1,1.373-.122,6.946,6.946,0,0,1,1.357.13,3.6,3.6,0,0,1,1.178.455,2.689,2.689,0,0,1,.861.812,2.868,2.868,0,0,1,.406,1.332h-2.25a1.032,1.032,0,0,0-.52-.926,2.38,2.38,0,0,0-1.1-.244h-.431a1.406,1.406,0,0,0-.422.106.861.861,0,0,0-.325.244.715.715,0,0,0,.1.942,1.8,1.8,0,0,0,.609.325,7.793,7.793,0,0,0,.853.26l.983.219a9.666,9.666,0,0,1,1.007.284,3.249,3.249,0,0,1,.877.447,2.169,2.169,0,0,1,.617.682,2.015,2.015,0,0,1,.236,1.007,2.616,2.616,0,0,1-1.235,2.356,3.64,3.64,0,0,1-1.259.5,7.377,7.377,0,0,1-1.446.138,7.166,7.166,0,0,1-1.47-.146,3.9,3.9,0,0,1-1.276-.5,2.746,2.746,0,0,1-1.308-2.372h2.259a1.284,1.284,0,0,0,.154.658m-9.473-6.5v1.2h.049a2.73,2.73,0,0,1,1.17-1.1,3.38,3.38,0,0,1,1.47-.341,4.062,4.062,0,0,1,1.56.26,2.324,2.324,0,0,1,.959.723,2.762,2.762,0,0,1,.5,1.113,7.142,7.142,0,0,1,.138,1.462v5.305h-2.372V33.838a3.046,3.046,0,0,0-.333-1.625,1.3,1.3,0,0,0-1.186-.528,1.625,1.625,0,0,0-1.406.577,3.2,3.2,0,0,0-.431,1.893V38.68h-2.348V30.069ZM156.415.285v1.2h.065A2.738,2.738,0,0,1,157.634.4,3.38,3.38,0,0,1,159.1.058a4.062,4.062,0,0,1,1.56.26,2.324,2.324,0,0,1,.959.715,2.778,2.778,0,0,1,.5,1.121,6.946,6.946,0,0,1,.138,1.462V8.946h-2.372V4.071a3.022,3.022,0,0,0-.333-1.625,1.292,1.292,0,0,0-1.186-.52,1.625,1.625,0,0,0-1.405.577,3.25,3.25,0,0,0-.431,1.893v4.55h-2.372V.285Zm-9.3,6.564a2.437,2.437,0,0,0,2.77.162,1.5,1.5,0,0,0,.634-.764H152.6a3.965,3.965,0,0,1-1.535,2.218,4.525,4.525,0,0,1-2.5.666,4.931,4.931,0,0,1-1.836-.325,3.786,3.786,0,0,1-1.389-.926,4.184,4.184,0,0,1-.877-1.438,5.257,5.257,0,0,1-.309-1.836,5,5,0,0,1,.317-1.8,4.208,4.208,0,0,1,2.259-2.4,4.468,4.468,0,0,1,1.8-.349,4.127,4.127,0,0,1,1.917.422,3.875,3.875,0,0,1,1.389,1.154,4.712,4.712,0,0,1,.764,1.625,6.174,6.174,0,0,1,.163,1.917h-6.223a2.437,2.437,0,0,0,.585,1.674M182.25,36.625a2.437,2.437,0,0,0,2.77.162,1.5,1.5,0,0,0,.634-.764h2.088a3.965,3.965,0,0,1-1.535,2.218,4.525,4.525,0,0,1-2.5.666,4.931,4.931,0,0,1-1.836-.325,3.786,3.786,0,0,1-1.389-.926,4.184,4.184,0,0,1-.877-1.438,5.256,5.256,0,0,1-.309-1.836,5,5,0,0,1,.317-1.8,4.16,4.16,0,0,1,2.291-2.437,4.468,4.468,0,0,1,1.8-.349,4.127,4.127,0,0,1,1.917.422,3.875,3.875,0,0,1,1.34,1.146,4.712,4.712,0,0,1,.764,1.625,6.174,6.174,0,0,1,.163,1.917h-6.215a2.437,2.437,0,0,0,.585,1.674m2.681-4.541a1.682,1.682,0,0,0-1.3-.471,2.064,2.064,0,0,0-.942.195,1.771,1.771,0,0,0-.6.471,1.8,1.8,0,0,0-.317.6,2.834,2.834,0,0,0-.106.569h3.859a2.754,2.754,0,0,0-.593-1.373M149.794,2.308a1.682,1.682,0,0,0-1.3-.471,2.064,2.064,0,0,0-.942.195,1.771,1.771,0,0,0-.6.471,1.8,1.8,0,0,0-.317.6,2.835,2.835,0,0,0-.106.569h3.859a2.754,2.754,0,0,0-.593-1.373M136.462.285v1.1h0A2.632,2.632,0,0,1,137.6.367,3.42,3.42,0,0,1,139.07.05a3.745,3.745,0,0,1,1.755.382,3.607,3.607,0,0,1,1.219,1.016,4.3,4.3,0,0,1,.715,1.479,6.6,6.6,0,0,1,.236,1.763,5.971,5.971,0,0,1-.236,1.665,4.241,4.241,0,0,1-.707,1.422,3.494,3.494,0,0,1-1.186.983,3.566,3.566,0,0,1-1.625.366,3.363,3.363,0,0,1-1.479-.325,2.787,2.787,0,0,1-1.1-.959h0V11.9h-2.372V.285Zm3.079,6.841a1.958,1.958,0,0,0,.634-.609,2.575,2.575,0,0,0,.341-.877,5.288,5.288,0,0,0,.1-1.016,4.712,4.712,0,0,0-.106-1.016,2.681,2.681,0,0,0-.357-.894,1.99,1.99,0,0,0-.642-.634,1.8,1.8,0,0,0-.959-.244,1.836,1.836,0,0,0-.975.244,1.95,1.95,0,0,0-.634.626,2.519,2.519,0,0,0-.341.886,5.167,5.167,0,0,0-.1,1.032,4.713,4.713,0,0,0,.106,1.016,2.591,2.591,0,0,0,.374.869,1.82,1.82,0,0,0,1.625.812,1.869,1.869,0,0,0,.975-.236M124.227,2.731a4.062,4.062,0,0,1,.9-1.438,3.981,3.981,0,0,1,1.405-.91A4.931,4.931,0,0,1,128.37.058a5,5,0,0,1,1.844.325,3.938,3.938,0,0,1,2.307,2.356,5.354,5.354,0,0,1,.317,1.877,5.281,5.281,0,0,1-.317,1.869,4.062,4.062,0,0,1-.9,1.43,3.948,3.948,0,0,1-1.405.91,5.11,5.11,0,0,1-1.844.317,5.045,5.045,0,0,1-1.836-.317,3.908,3.908,0,0,1-1.406-.91,4.062,4.062,0,0,1-.9-1.405,5.224,5.224,0,0,1-.317-1.869,5.3,5.3,0,0,1,.317-1.877m2.194,2.86a2.608,2.608,0,0,0,.309.886,1.836,1.836,0,0,0,.642.626,1.974,1.974,0,0,0,1,.236,2.015,2.015,0,0,0,1.007-.236,1.771,1.771,0,0,0,.65-.626,2.729,2.729,0,0,0,.341-.886,4.956,4.956,0,0,0,.114-1.007,5.084,5.084,0,0,0-.1-1.016,2.632,2.632,0,0,0-.341-.886,1.893,1.893,0,0,0-.65-.626,1.958,1.958,0,0,0-1.007-.244,1.812,1.812,0,0,0-1.625.869,2.518,2.518,0,0,0-.341.877,5.077,5.077,0,0,0-.1,1.016,4.963,4.963,0,0,0,.1,1.016" transform="translate(-23.177 -0.01)" fill="#fff"/>
    <path id="Path_2081" data-name="Path 2081" d="M91.715.315V38.678H73.842V25.842C71.4,33.771,64.32,38.662,55.01,38.662H38.249V25.939a19.5,19.5,0,1,1,0-12.893V.307H54.985c9.3,0,16.395,4.875,18.832,12.82V.315Z" transform="translate(0 0)" fill="#fff"/>
  </g>
</svg>
