<svg xmlns="http://www.w3.org/2000/svg" xmlns:xlink="http://www.w3.org/1999/xlink" width="990" height="741" viewBox="0 0 990 741"><defs><pattern id="a" preserveAspectRatio="none" width="100%" height="100%" viewBox="0 0 4416 3300"><image width="4416" height="3300" xlink:href="Component%206%20-%2023-image.png"/></pattern></defs><g transform="translate(1 1)" style="isolation:isolate"><rect width="988" height="739" stroke="#7aad8a" stroke-width="2" opacity="0" fill="url(#a)"/><path d="M18501.051-14834.9l17.883,205.662,12.082,16.458,28.52,7.039,6.863,11.456,3.988,3.245,11.855,2.388h9.422l14.188-8.35,55.471,8.35,2.209,7.354,4.691,6.786,15.3,3.328h10.512l11.15-8.009,217.457,37.178,3.393,8.57,2.986,3.807,17.047,4.517,12.754-1.988,7.422-6.335,67.826,11.191,3.414,8.09,5.869,5.37,13.383,2.244h8.3l9.3-7.614,48.023,5.37,21.6-2.542,18.031-9.144,14.484-12.966,2.326-10.234v-15.81l33.74-25.119,10.5,3.292h16.313l15.781-14.108,9.883-14.25,3.141-59.342,10.691-155.4,1.621,3.741h3.479l19.236-13.474v-4.608l-2.031-3.567v-24.325l4.416-2.724v-5.046l-2.385-2.624-2.031-14.614-4.91-5.181-10.465-4.752-6.93-43.648-13.59-15.545-54.3-7.907-4.072-13.1-6.469-2-121.676-12-13.129,6.06-57.129-6.06-157.908-16.171-6.424-7.408-114.852-12.562-22.949,9.262-32.861-1.762h-12.883l-84.072,28.417-64.719,22.743-10.773,8.043-5.457,9.975-5.332,43.188-13.664,4.97-3.422,7.906v11.657l-2.895,3.813v4.642l4.266,2.546v25.8l-1.371,2.226v3.679l7.559,4.487,60.531,9.189" transform="translate(-18394.586 15165.978)" fill="none" stroke="#7aad8a" stroke-width="2"/><path d="M18602.273-14578.7l-6.023-9.772-3.441-18.116-5.684-71.221-3.551-58.166-7.77-84.6v-109.844l8.082-24.937,21.268-8.758,103.078,12.256,86.193-36.232" transform="translate(-18428.332 15151.959)" fill="none" stroke="#7aad8a" stroke-width="2"/><path d="M18627.3-14561.17l-8.221-11.625-3.168-39.373-4.541-67.244-5.5-74.7-5.529-76.615-1.375-44.975,1.375-36.746,6.025-22.146,11.566-8.947,85.914,10.855-12.2,13.322-6.639,41.34-1.656,57.088,4.719,61.793,5.842,79.734,3.789,67.244,5.086,51" transform="translate(-18435.738 15137.715)" fill="none" stroke="#7aad8a" stroke-width="2"/><path d="M18628.941-14769.579l1.113,31.641,43.221,6.335-.953-32.5Z" transform="translate(-18445.324 15082.082)" fill="none" stroke="#7aad8a" stroke-width="2"/><path d="M0,0,38.785,5.371" transform="translate(186.717 360.852)" fill="rgba(255,255,255,0)" stroke="#7aad8a" stroke-width="2"/><path d="M0,0,38.785,5.371" transform="translate(187.397 369.014)" fill="rgba(255,255,255,0)" stroke="#7aad8a" stroke-width="2"/><path d="M0,0,38.785,5.371" transform="translate(187.397 384.659)" fill="rgba(255,255,255,0)" stroke="#7aad8a" stroke-width="2"/><path d="M0,0,38.785,5.371" transform="translate(187.397 377.177)" fill="rgba(255,255,255,0)" stroke="#7aad8a" stroke-width="2"/><path d="M18613.209-14785.315l5.156-4.74,52.6,6.634,5.248,4.629,2.82,86.8-3.889,5.222-53.572-7.737-3.086-5.15Z" transform="translate(-18440.293 15088.63)" fill="none" stroke="#7aad8a" stroke-width="2"/><path d="M18850.059-14969.65l-87.832,33.133-7.609,15.286-3.475,43.285v50.823l3.475,72.564,6.523,88.03,7.18,101.555,4.57,13.171" transform="translate(-18484.402 15146.063)" fill="none" stroke="#7aad8a" stroke-width="2"/><path d="M18879.086-14899.687l-7.756,39.459,113.066,15.672v-20.266l9.795-17.84,5.973-4.916Z" transform="translate(-18522.838 15123.689)" fill="none" stroke="#7aad8a" stroke-width="2"/><path d="M18872.508-14901.348l-7.271,4.311-6.895,18.678-1.658,20.082,40.008,6.959-1.238,32.041-7.162,4.105v15.4l43.625,7.117v-12.244l5.275-7.07,1.375-33.338,38.051,3.584,3.449-3.584" transform="translate(-18518.154 15124.22)" fill="none" stroke="#7aad8a" stroke-width="2"/><path d="M18616.357-14965.962l-25.225,12.433-9.922,24.9-5.406,61.729v53.407l7.77,84.6,3.551,58.166,2.172,97.007,2.637,11.5,3.328,5.468" transform="translate(-18041.973 15196.579)" fill="none" stroke="#7aad8a" stroke-width="2"/><path d="M18633.217-14768.881v32.481l48.725,7.782v-33.54Z" transform="translate(-18073.834 15131.515)" fill="none" stroke="#7aad8a" stroke-width="2"/><path d="M18613.209-14784.966l5.535-5.09,56.467,7.122,5.635,4.97v93.563l-1.146,5.23-63.291-7.893-3.2-6.319Z" transform="translate(-18062.096 15137.486)" fill="none" stroke="#7aad8a" stroke-width="2"/><path d="M18770.664-14932.018l-12.342,11.123-5.826,11.7-5.309,43.064-2.676,50.557v75.893l3.047,86.8,4.125,100.707v21.783" transform="translate(-18112.246 15174.841)" fill="none" stroke="#7aad8a" stroke-width="2"/><line x2="43.533" y2="6.122" transform="translate(561.513 414.589)" fill="none" stroke="#7aad8a" stroke-width="2"/><line x2="43.533" y2="6.122" transform="translate(561.513 423.431)" fill="none" stroke="#7aad8a" stroke-width="2"/><line x2="43.533" y2="6.122" transform="translate(562.194 432.274)" fill="none" stroke="#7aad8a" stroke-width="2"/><line x2="43.533" y2="6.122" transform="translate(562.194 441.117)" fill="none" stroke="#7aad8a" stroke-width="2"/><path d="M18731.014-15046.215l-136.42,59.808-7.84,9.527-5.543,22.582-5.406,61.729v53.407l7.77,84.6,3.551,58.166,2.176,99" transform="translate(-18060.338 15222.243)" fill="none" stroke="#7aad8a" stroke-width="2"/><path d="M18769.207-14928.666l-10.885,8.843-9.107,19.6-2.027,35.162-2.676,50.558v75.892l3.047,86.8,4.125,100.707v21.294l3.109,7.732,7.625,7.493" transform="translate(-18091.84 15173.77)" fill="none" stroke="#7aad8a" stroke-width="2"/><path d="M19288.514-14718.748l19.512,3.27,7.553-3.27,48.967,6.043,25.869,3.021,48.943-3.021,38.523-21.549,53.1-32.041,31.262-19.117" transform="translate(-18656.248 15087.146)" fill="none" stroke="#7aad8a" stroke-width="2"/><path d="M19016.189-14724.838l-6.455,2.563-19.873-2.563v-3.021l-96.541-13.474h-5.246l-52.209-6.223-1.7-2.474-84.873-11.135-7.379,3.08-19.156-3.08" transform="translate(-18475.322 15079.392)" fill="none" stroke="#7aad8a" stroke-width="2"/><path d="M18563.4-14786.186h-4.387l-15.461-2.274-2.74-3.963-64.66-9.655" transform="translate(-18396.463 15092.475)" fill="none" stroke="#7aad8a" stroke-width="2"/><path d="M18753.152-14715.193l100.352,15.334v-15.334l5.348-3.072,37.4,4.447,6.51,4.758v16.73l96.92,11.736" transform="translate(-18485.045 15065.673)" fill="none" stroke="#7aad8a" stroke-width="2"/><path d="M19318.514-14662.771l5.578-1.4,77.756,10.684,36.746-2.507,40.2-20.341,1.729-8.811,69.184-41.575" transform="translate(-18665.842 15068.376)" fill="none" stroke="#7aad8a" stroke-width="2"/><path d="M19509.754-14925.156l-28.248,17.268-3.992,18.828,3.992,10.779,5.2,6.949v3.705l-31.664,16.58h-9.75l-6.285-27.234-4.541-5.348-37.141,16-12.488-10.654-17.074-5.348-56.834-5.432v-9.59l-4.2-2.895-99.262-10.414h-5.031v-3.74l125.4-54.969,98.934,9.9,4.727,4.016v8.4l68,7.645,12.381,15.551Z" transform="translate(-18628.723 15146.388)" fill="none" stroke="#7aad8a" stroke-width="2"/><path d="M18898.023-15007.47l-3.217-71.33,3.217-15.168,7.686-10.4h6.168l2.506,3.253h20.3v2.474l169.234,17.124,5.8-3.535h4.871l2.631,3.535,8.055,2.714,3.654-2.714h7.508l5.359,7.275,2.533,42.9v41.094l-7.893,6.508-15.8,4.963-21-2.611v-54.389h-7.148l-152.443-13.663,2.752,41.968-15.328,7.306-6.914-2.023h-22.529Z" transform="translate(-18530.346 15189.143)" fill="none" stroke="#7aad8a" stroke-width="2"/><g transform="translate(371.813 126.911)" fill="rgba(255,255,255,0)"><path d="M 36.94807434082031 33.9792366027832 L 24.68864440917969 33.9792366027832 L -2.265295267105103 33.9792366027832 L -3.97677206993103 10.28218078613281 L -4.522470474243164 -12.264817237854 L 35.71685028076172 10.08108043670654 L 36.94807434082031 33.9792366027832 Z" stroke="none"/><path d="M -3.480499267578125 -10.54232788085938 L -2.977664947509766 10.23393535614014 L -1.334915161132812 32.9792366027832 L 24.68864440917969 32.9792366027832 L 35.89523315429688 32.9792366027832 L 34.7466926574707 10.68618965148926 L -3.480499267578125 -10.54232788085938 M -5.564453125 -13.98730087280273 L 36.68699645996094 9.475987434387207 L 38.00092315673828 34.9792366027832 L 24.68864440917969 34.9792366027832 L -3.195674896240234 34.9792366027832 L -4.975914001464844 10.33022785186768 L -5.564453125 -13.98730087280273 Z" stroke="none" fill="#7aad8a"/></g><g transform="translate(570.696 165.371)" fill="rgba(255,255,255,0)"><path d="M 41.17307662963867 7.082683086395264 L 0.9999964237213135 7.082683086395264 L 0.9999964237213135 -0.3668069541454315 L 0.9999964237213135 -0.9938769340515137 L 0.9999964237213135 -5.518204689025879 L 41.17307662963867 -1.221723198890686 L 41.17307662963867 7.082683086395264 Z" stroke="none"/><path d="M 1.999996185302734 -4.405551433563232 L 1.999996185302734 -0.9938769340515137 L 1.999996185302734 -0.3668069839477539 L 1.999996185302734 6.082683086395264 L 40.17307662963867 6.082683086395264 L 40.17307662963867 -0.3229684829711914 L 1.999996185302734 -4.405551433563232 M -3.814697265625e-06 -6.630856513977051 L 42.17307662963867 -2.120476961135864 L 42.17307662963867 8.082683563232422 L -3.814697265625e-06 8.082683563232422 L -3.814697265625e-06 -0.3668069839477539 L -3.814697265625e-06 -0.9938769340515137 L -3.814697265625e-06 -6.630856513977051 Z" stroke="none" fill="#7aad8a"/></g><path d="M18628.5-14973.08l128.164-44.461" transform="translate(-18445.184 15161.377)" fill="none" stroke="#7aad8a" stroke-width="2"/><path d="M19525.762-14639.848l-12.514,204.822" transform="translate(-18728.115 15040.595)" fill="none" stroke="#7aad8a" stroke-width="2"/><path d="M19586-14689.922l-11.6,201.688-6.686,9.661-7.645,3.893" transform="translate(-18743.092 15056.608)" fill="none" stroke="#7aad8a" stroke-width="2"/><path d="M19625.816-14706.447l-7.184,154.928-2.76,51.42v13.711" transform="translate(-18760.934 15061.893)" fill="none" stroke="#7aad8a" stroke-width="2"/><path d="M19242.42-14912.652l102.623-45.793,68.158,6.076-97.422,48.246Z" transform="translate(-18641.508 15142.479)" fill="none" stroke="#7aad8a" stroke-width="2"/><path d="M19376.7-14881.238l104.729-46.957,51.508,3.968-99.082,50.575-57.154-5.444Z" transform="translate(-18684.449 15132.806)" fill="none" stroke="#7aad8a" stroke-width="2"/><path d="M19567.35-14857.763v12.875l12.246-6.652v-11.573Z" transform="translate(-18745.418 15111.993)" fill="none" stroke="#7aad8a" stroke-width="2"/></g></svg>