<svg xmlns="http://www.w3.org/2000/svg" width="173.246" height="48.788" viewBox="0 0 173.246 48.788">
  <g id="Group_1841" data-name="Group 1841" transform="translate(-605.504 -7115)">
    <g id="sloan-foundation" transform="translate(605.642 7115)">
      <path id="Path_2056" data-name="Path 2056" d="M17.576,18.442a6.1,6.1,0,0,1-1.145-2.354C12.974,6.638,11.764,2.958,11.033.7c0-.085-.117-.148-.53-.148s-.318,0-.35.085C8.392,5.27,5.571,11.506,3.184,16.5a5.876,5.876,0,0,1-1.061,1.708c-.382.382-.53.467-2.121.562-.064,0-.064.2,0,.2,1.845-.064,4.051-.064,5.642,0,.064,0,.085-.233,0-.233-1.994-.117-2.291-.2-2.291-.88a4.062,4.062,0,0,1,.361-1.241c.562-1.379.848-2.121,1.442-3.351a.3.3,0,0,1,.3-.148H8.127c2.323,0,3.733,0,4.168.064.467,1.411,1.209,3.4,1.5,4.317.18.562.148.8,0,.944s-.615.233-1.877.318c-.064,0-.064.233,0,.233,1.729-.064,2.492,0,3.521,0s2.609.064,4.242.085c.064,0,.064-.265,0-.265C18.032,18.707,17.82,18.675,17.576,18.442ZM5.422,12.694c.944-2.217,2.471-5.589,3.67-8.41h0c.764,2.026,2.058,5.547,3.054,8.485C10.418,12.8,7.215,12.768,5.422,12.694Z" transform="translate(0.045 0.037)" fill="#fff"/>
      <path id="Path_2057" data-name="Path 2057" d="M25.7,18.752c-1.792-.064-1.909-.085-1.973-.148a2.005,2.005,0,0,1-.233-1.209V9.44c0-3.182,0-5.791.064-8.845,0-.2,0-.265-.2-.265-1.792.064-2.906.064-4.582,0-.117,0-.117.265,0,.265,1.708.064,1.824.064,1.909.148s.085.265.085.7c.064,3.256.064,6.226.064,10.256,0,1.845-.085,4.55-.085,5.992,0,.583,0,.732-.085.827s-.318.117-1.909.117c-.064,0-.085.265,0,.265,2.7,0,4.348,0,6.936.085C25.785,19.017,25.785,18.752,25.7,18.752Z" transform="translate(1.18 0.023)" fill="#fff"/>
      <path id="Path_2058" data-name="Path 2058" d="M33.609,18.741c-2.259,0-2.588-.117-2.673-.2s-.085-.117-.085-1.061c0-2.556,0-7.106-.064-9.46h3.553c.085,0,.117-.318,0-.318H30.788V5.144A8.9,8.9,0,0,1,31.4,1.411,2.121,2.121,0,0,1,33.524.3c1.591,0,2.259.88,2.058,1.061s-.7.148-1.145.583a1.326,1.326,0,0,0-.382,1,1.326,1.326,0,0,0,1.411,1.3,1.432,1.432,0,0,0,1.442-1.591C36.9,1.209,35.4,0,33.492,0a4.879,4.879,0,0,0-3.786,1.591c-1.379,1.379-1.644,3.373-1.57,6.045H25.814c-.085,0-.085.318,0,.318h2.323c.085,1.464.085,7.9.085,9.365,0,1,0,1.23-.117,1.347a9.132,9.132,0,0,1-2.227.117c-.148,0-.117.265,0,.265,2.058,0,6.957-.064,7.721-.064C33.694,18.974,33.694,18.741,33.609,18.741Z" transform="translate(1.607 0.003)" fill="#fff"/>
      <path id="Path_2059" data-name="Path 2059" d="M42.5,6.811c-1.676,0-2.7,2.058-3.553,4.242h-.064c0-.912.064-2.7.064-3.468,0-.414,0-.467-.53-.467s-3.5.085-4.348.085c-.117,0-.117.233,0,.233,1.708,0,1.845.064,1.941.148a12.661,12.661,0,0,1,.265,3.67V16.1a9.057,9.057,0,0,1-.18,2.121c-.085.085-.3.085-2.259.117-.117,0-.085.265,0,.265h7.6c.117,0,.117-.265,0-.265a8.792,8.792,0,0,1-2.291-.18A7.074,7.074,0,0,1,39,16.038V12.952a5.95,5.95,0,0,1,.732-2.938c.732-1.442,1.644-2.673,2.471-2.673.318,0,.467.148.467.265a2.546,2.546,0,0,0-.848,1.676,1.326,1.326,0,0,0,1.411,1.347,1.75,1.75,0,0,0,1.644-1.845A2.121,2.121,0,0,0,42.5,6.811Z" transform="translate(2.093 0.415)" fill="#fff"/>
      <path id="Path_2060" data-name="Path 2060" d="M51.148,6.65a6.119,6.119,0,0,0-4.38,2.058,5.886,5.886,0,0,0-1.708,4.02,5.61,5.61,0,0,0,1.708,4.242,7.116,7.116,0,0,0,4.847,1.973,5.3,5.3,0,0,0,5.048-3.659c0-.117-.265-.233-.318-.148-.848,2.206-2.408,3.4-4.4,3.4a2.9,2.9,0,0,1-3.023-1.708,10.033,10.033,0,0,1-.7-4.348c1.5-.064,3.754-.085,8.485-.064a.233.233,0,0,0,.18-.265,5.494,5.494,0,0,0-1.6-3.776A5.854,5.854,0,0,0,51.148,6.65Zm-2.97,5.462a9.991,9.991,0,0,1,.711-4.03A2.344,2.344,0,0,1,51.01,6.873c1.877,0,2.7,1.5,2.906,5.165Z" transform="translate(2.777 0.406)" fill="#fff"/>
      <path id="Path_2061" data-name="Path 2061" d="M71.081,18.755c-1.729,0-1.941,0-2.026-.117s-.18-.414-.18-1.612c0-2.789-.064-4.4-.064-7.551,0-2.492.085-6.194.148-8.9,0-.233-.064-.3-.2-.3C66.966.365,65.767.4,63.88.4c-.064,0-.064.265,0,.265C65.757.662,66,.747,66,.842A5.374,5.374,0,0,1,66.117,1.9V8.892h0A4.582,4.582,0,0,0,62.936,7.1a5.589,5.589,0,0,0-3.617,1.877,6.257,6.257,0,0,0-1.909,4.582,6.119,6.119,0,0,0,1.761,4.38A4.444,4.444,0,0,0,62.352,19.4a4.242,4.242,0,0,0,3.638-2.556h0c.085,1.994.148,2.206.265,2.206,1.209,0,2.789-.064,4.73-.064C71.219,18.989,71.219,18.755,71.081,18.755Zm-5.2-2.121a3.521,3.521,0,0,1-2.97,2.121,1.877,1.877,0,0,1-1.877-1.114c-.382-.764-.562-1.792-.562-4.38a9.545,9.545,0,0,1,.679-4.38,2.354,2.354,0,0,1,2.121-1.347A4.051,4.051,0,0,1,66.1,9.327c.117.265.148.615.148,3.023-.042,3.373-.106,3.786-.371,4.285Z" transform="translate(3.525 0.02)" fill="#fff"/>
      <path id="Path_2062" data-name="Path 2062" d="M85.536,18.613c-3.182,0-3.256-.064-3.351-.148S82.1,18.083,82.1,14.3v-3.67a.062.062,0,0,1,.064-.064,16.717,16.717,0,0,0,1.792.085,9.725,9.725,0,0,0,6.883-2.492,3.564,3.564,0,0,0,1.209-2.673,3.3,3.3,0,0,0-1-2.492c-1.23-1.23-3.5-1.941-6.671-1.941H76.362c-.085,0-.085.265,0,.265,2.058,0,2.439.064,2.524.148a37.249,37.249,0,0,1,.18,4.613v6.639c0,5.229-.064,5.727-.148,5.812a20.384,20.384,0,0,1-2.7.18c-.085,0-.085.265,0,.265,1.559-.064,2.874-.085,4.5-.085h4.783C85.621,18.878,85.589,18.613,85.536,18.613ZM82.068,4.1c0-2.471,0-2.588.117-2.641s.3-.148,1.973-.148c2.492,0,3.585.318,4.168,1.527a6.363,6.363,0,0,1,.5,2.7,6.438,6.438,0,0,1-.435,2.874c-.615,1.23-2.121,1.877-4.55,1.877-1.559,0-1.644-.064-1.708-.117s-.064-.148-.064-1.061Z" transform="translate(4.66 0.067)" fill="#fff"/>
      <path id="Path_2063" data-name="Path 2063" d="M91.5,14.68a1.75,1.75,0,0,0-1.792,1.761,1.856,1.856,0,0,0,1.676,1.909A1.909,1.909,0,0,0,93.2,16.356a1.718,1.718,0,0,0-1.7-1.676Z" transform="translate(5.482 0.892)" fill="#fff"/>
      <path id="Path_2064" data-name="Path 2064" d="M107.943,8.232c-3.182-.848-4.38-1.527-4.38-3.4a3.447,3.447,0,0,1,.965-2.439,4.179,4.179,0,0,1,3.256-1.145A4.624,4.624,0,0,1,111.22,2.59a12.26,12.26,0,0,1,2.291,4.136c0,.117.233.064.233,0a34.513,34.513,0,0,1,.064-5.791c0-.085-.2-.148-.233,0-.35.732-.764,1.442-.965,1.442A8.835,8.835,0,0,0,107.794,1c-3.7,0-6.173,2.588-6.173,5.377a3.85,3.85,0,0,0,1.145,3.054c.88.88,2.354,1.527,5.3,2.291,3.468.88,4.73,1.845,4.73,3.733a3.182,3.182,0,0,1-.965,2.471,4.518,4.518,0,0,1-3.182,1.061,5.918,5.918,0,0,1-4.242-1.5,14.476,14.476,0,0,1-2.789-4.9.106.106,0,0,0-.2.064,45.109,45.109,0,0,1,.2,6.363.106.106,0,0,0,.2.064c.467-.827,1-1.379,1.326-1.379.615,0,2.121,1.612,5.43,1.612,3.521,0,6.257-2.323,6.257-5.409a3.924,3.924,0,0,0-1.177-3.118C112.789,9.876,111.262,9.08,107.943,8.232Z" transform="translate(6.191 0.055)" fill="#fff"/>
      <path id="Path_2065" data-name="Path 2065" d="M122.731,18.752c-1.792-.064-1.909-.085-1.973-.148a2,2,0,0,1-.233-1.209V9.44c0-3.182,0-5.791.064-8.845,0-.2,0-.265-.2-.265-1.792.064-2.906.064-4.582,0-.117,0-.117.265,0,.265,1.708.064,1.824.064,1.909.148s.085.265.085.7c.064,3.256.064,6.226.064,10.256,0,1.845-.085,4.55-.085,5.992,0,.583,0,.732-.085.827s-.318.117-1.909.117c-.064,0-.085.265,0,.265,2.7,0,4.348,0,6.936.085C122.815,19.017,122.815,18.752,122.731,18.752Z" transform="translate(7.057 0.023)" fill="#fff"/>
      <path id="Path_2066" data-name="Path 2066" d="M130.019,6.7a6.82,6.82,0,0,0-4.783,1.941,5.992,5.992,0,0,0-1.845,4.242,5.483,5.483,0,0,0,1.708,4.094,6.968,6.968,0,0,0,4.667,1.973,6.438,6.438,0,0,0,4.582-1.941,5.674,5.674,0,0,0,1.877-4.051,6.077,6.077,0,0,0-1.909-4.433A6,6,0,0,0,130.019,6.7Zm2.376,10.51a2.471,2.471,0,0,1-2.588,1.474c-1.994,0-3.32-1.464-3.32-5.791a9.333,9.333,0,0,1,.764-4.242,2.842,2.842,0,0,1,2.736-1.633,2.524,2.524,0,0,1,2.535,1.358,8.548,8.548,0,0,1,.562,3.468c.021,3.023-.223,4.433-.689,5.377Z" transform="translate(7.522 0.409)" fill="#fff"/>
      <path id="Path_2067" data-name="Path 2067" d="M149.5,16.007c-.3,1.5-.944,2.206-1.591,2.206s-.764-.3-.764-.944c0-1.973.085-4.73.085-6.194a3.892,3.892,0,0,0-1.061-2.991,4.836,4.836,0,0,0-3.585-1.294A5,5,0,0,0,139,8.169a2.036,2.036,0,0,0-.732,1.527,1.517,1.517,0,0,0,3.023.064C141.289,8.5,140,8.434,140,8.084s.944-1.061,2.291-1.061a2.121,2.121,0,0,1,1.644.562,2.333,2.333,0,0,1,.562,1.761v2.673c-3.5.265-5.3.944-6.363,1.994a2.556,2.556,0,0,0-.848,1.845,3.182,3.182,0,0,0,3.436,2.906,4.794,4.794,0,0,0,3.691-1.845,2.492,2.492,0,0,0,2.641,1.941c1.591,0,2.439-1.145,2.7-2.789A.17.17,0,0,0,149.5,16.007Zm-5.027-.827a3.521,3.521,0,0,1-.148,1.347,3.892,3.892,0,0,1-2.736,1.644c-1.061,0-1.474-.8-1.474-2.439,0-2.588.764-3.086,4.4-3.373-.011,1.739-.011,1.92-.042,2.832Z" transform="translate(8.363 0.414)" fill="#fff"/>
      <path id="Path_2068" data-name="Path 2068" d="M163.96,18.42a5.918,5.918,0,0,1-1.729-.148c-.148-.18-.2-.764-.2-3.521V10.932c0-2.821-1.326-4.242-3.521-4.242-1.994,0-3.182,1.5-4.38,3.754h0c0-.764.064-2.058.085-2.991,0-.2,0-.265-.2-.265h-4.667c-.117,0-.117.233,0,.233,1.591,0,1.792.064,1.877.148a4.518,4.518,0,0,1,.2,1.792V16a7.105,7.105,0,0,1-.148,2.227c-.085.085-.35.085-1.941.117-.085,0-.117.233,0,.233,2.227-.064,4.465,0,6.607,0a.117.117,0,0,0,0-.233c-1.464-.064-1.644-.148-1.708-.2a5.494,5.494,0,0,1-.117-1.591c0-.944-.064-3.182-.064-4.242a3.51,3.51,0,0,1,.35-1.941c.679-1.347,1.877-2.821,3.182-2.821s1.676.965,1.676,2.609V17a3.181,3.181,0,0,1-.085,1.177c-.085.085-.35.085-1.347.117-.085,0-.085.233,0,.233,2.121,0,3.383,0,6.077.064C164.045,18.685,164.045,18.42,163.96,18.42Z" transform="translate(9.089 0.409)" fill="#fff"/>
    </g>
    <path id="Path_2069" data-name="Path 2069" d="M183.275,1c-3.256.064-4.051,0-8.166,0h-6.194c-.085,0-.085.233,0,.233,2.354.064,2.524.148,2.609.233s.064.2.085,1.591c0,1.824.064,4.7.064,6.491v7.636a2.885,2.885,0,0,1-.148,1.294c-.085.085-.445.117-2.821.2-.064,0-.064.233,0,.233h9.4c.064,0,.064-.233,0-.233-2.821-.064-3.054-.117-3.182-.2s-.18-.382-.18-1.061c0-.965-.085-6.363-.064-7.636.117,0,.965-.064,1.527-.064,1.845,0,2.376.148,2.609.414a6.8,6.8,0,0,1,.827,2.821c0,.064.2.064.2,0,0-.944-.064-2.121-.064-3.182s.085-2.588.148-3.754c0-.117-.265-.117-.265,0-.3,2.354-.5,2.757-.764,3.023a4.02,4.02,0,0,1-2.408.445,6.056,6.056,0,0,1-1.824-.085c0-1.824,0-5.547,0-6.173a7.18,7.18,0,0,1,.085-1.676,13.787,13.787,0,0,1,2.938-.085c2.524,0,2.853.18,3.468.8s1.061,1.644,1.941,4.762c0,.085.2.085.2,0,.117-2.121.117-3.85.148-5.642C183.487,1.085,183.423,1,183.275,1Z" transform="translate(436.849 7144.44)" fill="#fff"/>
    <path id="Path_2070" data-name="Path 2070" d="M189.549,6.7a6.819,6.819,0,0,0-4.783,1.941,5.992,5.992,0,0,0-1.845,4.242,5.483,5.483,0,0,0,1.729,4.083,6.968,6.968,0,0,0,4.667,1.973A6.438,6.438,0,0,0,193.9,17a5.674,5.674,0,0,0,1.835-4.041,6.077,6.077,0,0,0-1.909-4.433A6,6,0,0,0,189.549,6.7Zm2.376,10.51a2.471,2.471,0,0,1-2.556,1.474c-1.994,0-3.32-1.464-3.32-5.791a9.333,9.333,0,0,1,.764-4.242,2.842,2.842,0,0,1,2.715-1.633,2.524,2.524,0,0,1,2.556,1.411,8.548,8.548,0,0,1,.562,3.468c-.011,2.97-.244,4.38-.711,5.324Z" transform="translate(437.713 7144.786)" fill="#fff"/>
    <path id="Path_2071" data-name="Path 2071" d="M210.312,18.341c-1.824-.064-1.973-.064-2.121-.18a3.7,3.7,0,0,1-.085-1.326c0-2.906.117-9.4.117-9.545s-.148-.18-.647-.18c-.117,0-3.7,0-4.55.064-.148,0-.117.265,0,.265,1.909,0,2.058.064,2.206.18s.233.615.233,1.761c0,.944-.064,2.556-.064,4.242a3.924,3.924,0,0,1-.5,1.973c-.7,1.411-1.644,2.376-2.641,2.376a1.9,1.9,0,0,1-1.792-2.121V7.5c0-.265-.064-.35-.3-.35-.679,0-2.206.085-4.5.064-.148,0-.148.265,0,.265,1.5.064,1.824.085,1.941.2s.18.382.18,1.23c0,1.061-.064,5.048-.064,6.459a3.288,3.288,0,0,0,.827,2.609,3.617,3.617,0,0,0,2.609.965c1.761,0,3.182-1.464,4.115-3.373h0c-.064,2.641.18,3.086.382,3.086,1.145,0,3.5-.064,4.582-.064C210.429,18.607,210.429,18.341,210.312,18.341Z" transform="translate(438.479 7144.811)" fill="#fff"/>
    <path id="Path_2072" data-name="Path 2072" d="M224.54,18.42a5.918,5.918,0,0,1-1.729-.148c-.148-.18-.2-.764-.2-3.521V10.932c0-2.821-1.326-4.242-3.521-4.242-1.994,0-3.182,1.5-4.38,3.754h0c0-.764.064-2.058.085-2.991,0-.2,0-.265-.2-.265h-4.667c-.117,0-.117.233,0,.233,1.591,0,1.792.064,1.877.148a4.518,4.518,0,0,1,.2,1.792V16a7.106,7.106,0,0,1-.148,2.227c-.085.085-.35.085-1.941.117-.085,0-.117.233,0,.233,2.227-.064,4.465,0,6.607,0a.117.117,0,0,0,0-.233c-1.464-.064-1.644-.148-1.708-.2a5.494,5.494,0,0,1-.117-1.591c0-.944-.064-3.182-.064-4.242a3.51,3.51,0,0,1,.35-1.941c.679-1.347,1.877-2.821,3.182-2.821s1.676.965,1.676,2.609V17a3.182,3.182,0,0,1-.085,1.177c-.085.085-.35.085-1.347.117-.085,0-.085.233,0,.233,2.121,0,3.383,0,6.077.064C224.635,18.685,224.635,18.42,224.54,18.42Z" transform="translate(439.343 7144.785)" fill="#fff"/>
    <path id="Path_2073" data-name="Path 2073" d="M238,18.755c-1.729,0-1.941,0-2.026-.117s-.18-.414-.18-1.612c0-2.789-.064-4.4-.064-7.551,0-2.492.085-6.194.148-8.9,0-.233-.064-.3-.2-.3C233.886.365,232.687.4,230.8.4c-.064,0-.064.265,0,.265,1.877,0,2.121.085,2.121.18a5.372,5.372,0,0,1,.117,1.061V8.892h0A4.582,4.582,0,0,0,229.856,7.1a5.589,5.589,0,0,0-3.617,1.877,6.257,6.257,0,0,0-1.909,4.582,6.12,6.12,0,0,0,1.771,4.37,4.444,4.444,0,0,0,3.182,1.464,4.242,4.242,0,0,0,3.638-2.556h0c.085,1.994.148,2.206.265,2.206,1.209,0,2.789-.064,4.73-.064C238.149,18.989,238.149,18.755,238,18.755Zm-5.2-2.121a3.521,3.521,0,0,1-2.97,2.121,1.877,1.877,0,0,1-1.877-1.114c-.382-.764-.562-1.792-.562-4.38a9.545,9.545,0,0,1,.679-4.38A2.354,2.354,0,0,1,230.2,7.534a4.041,4.041,0,0,1,2.821,1.792c.117.265.148.615.148,3.023-.042,3.373-.1,3.786-.361,4.285Z" transform="translate(440.221 7144.396)" fill="#fff"/>
    <path id="Path_2074" data-name="Path 2074" d="M250.626,16.007c-.3,1.5-.944,2.206-1.591,2.206s-.764-.3-.764-.944c0-1.973.085-4.73.085-6.194A3.892,3.892,0,0,0,247.3,8.084a4.836,4.836,0,0,0-3.585-1.294,5,5,0,0,0-3.585,1.379,2.036,2.036,0,0,0-.732,1.527,1.517,1.517,0,0,0,3.023.064c.042-1.273-1.262-1.326-1.262-1.686s.944-1.061,2.291-1.061a2.121,2.121,0,0,1,1.644.562,2.333,2.333,0,0,1,.562,1.761v2.673c-3.5.265-5.3.944-6.363,1.994a2.556,2.556,0,0,0-.848,1.845,3.182,3.182,0,0,0,3.436,2.906,4.794,4.794,0,0,0,3.585-1.877,2.492,2.492,0,0,0,2.641,1.941c1.591,0,2.439-1.145,2.7-2.789C250.859,15.954,250.7,15.954,250.626,16.007ZM245.6,15.18a3.521,3.521,0,0,1-.148,1.347,3.892,3.892,0,0,1-2.736,1.644c-1.061,0-1.474-.8-1.474-2.439,0-2.588.764-3.086,4.4-3.373-.011,1.739-.011,1.92-.042,2.832Z" transform="translate(441.076 7144.791)" fill="#fff"/>
    <path id="Path_2075" data-name="Path 2075" d="M258.567,15.437c-.5,1.973-1.379,2.991-2.323,2.991a1.559,1.559,0,0,1-1.442-.764c-.18-.318-.233-.562-.233-2.376,0-2.556.064-6.194.148-7.488.233,0,1.209-.064,3.521-.064.117,0,.18-.265.064-.265l-3.585-.064c0-1,0-3.054.117-4.242,0-.148-.18-.148-.2,0a9.428,9.428,0,0,1-1.761,3.617c-.445.445-1.061.615-2.906.7-.117,0-.148.265,0,.265h2.121c-.085,2.259-.117,5.876-.117,7.668a3.182,3.182,0,0,0,.8,2.556,3.638,3.638,0,0,0,2.7.965c1.729,0,2.874-1.209,3.351-3.521C258.832,15.321,258.6,15.321,258.567,15.437Z" transform="translate(441.768 7144.565)" fill="#fff"/>
    <path id="Path_2076" data-name="Path 2076" d="M265.943,18.313c-1.676,0-2.058-.064-2.121-.148a15.064,15.064,0,0,1-.148-3.5V7.325c0-.2-.064-.265-.233-.265-.583,0-2.492.064-4.847.085-.085,0-.085.265,0,.265,1.909,0,2.121,0,2.227.117a1.347,1.347,0,0,1,.18.848c.064,1.527.117,4.815.117,5.929v2.524a3.425,3.425,0,0,1-.148,1.326c-.117.117-.562.117-2.227.148-.117,0-.085.233,0,.233h7.286C266.028,18.578,266.028,18.313,265.943,18.313Z" transform="translate(442.293 7144.808)" fill="#fff"/>
    <path id="Path_2077" data-name="Path 2077" d="M262.084,3.863a1.867,1.867,0,0,0,1.761-1.782A1.464,1.464,0,0,0,262.381.66a1.718,1.718,0,0,0-1.326.53,1.623,1.623,0,0,0-.445,1.145,1.548,1.548,0,0,0,1.474,1.527Z" transform="translate(442.418 7144.419)" fill="#fff"/>
    <path id="Path_2078" data-name="Path 2078" d="M272.878,6.7a6.819,6.819,0,0,0-4.773,1.941,5.992,5.992,0,0,0-1.845,4.242,5.483,5.483,0,0,0,1.729,4.083,6.968,6.968,0,0,0,4.667,1.973A6.438,6.438,0,0,0,277.237,17a5.674,5.674,0,0,0,1.877-4.051,6.077,6.077,0,0,0-1.909-4.433A6,6,0,0,0,272.878,6.7Zm2.376,10.51a2.471,2.471,0,0,1-2.588,1.474c-1.994,0-3.32-1.464-3.32-5.791a9.333,9.333,0,0,1,.764-4.242,2.842,2.842,0,0,1,2.736-1.633A2.524,2.524,0,0,1,275.4,8.429a8.548,8.548,0,0,1,.562,3.468c-.011,2.97-.244,4.38-.711,5.324Z" transform="translate(442.761 7144.786)" fill="#fff"/>
    <path id="Path_2079" data-name="Path 2079" d="M294.08,18.42a5.918,5.918,0,0,1-1.729-.148c-.148-.18-.2-.764-.2-3.521V10.932c0-2.821-1.326-4.242-3.521-4.242-1.994,0-3.182,1.5-4.38,3.754h0c0-.764.064-2.058.085-2.991,0-.2,0-.265-.2-.265h-4.667c-.117,0-.117.233,0,.233,1.591,0,1.792.064,1.877.148a4.517,4.517,0,0,1,.2,1.792V16a7.106,7.106,0,0,1-.148,2.227c-.085.085-.35.085-1.941.117-.085,0-.117.233,0,.233,2.227-.064,4.465,0,6.607,0a.117.117,0,0,0,0-.233c-1.464-.064-1.644-.148-1.707-.2a5.5,5.5,0,0,1-.074-1.58c0-.944-.064-3.182-.064-4.242a3.51,3.51,0,0,1,.35-1.941c.679-1.347,1.877-2.821,3.182-2.821s1.676.965,1.676,2.609v6.841a3.182,3.182,0,0,1-.085,1.177c-.085.085-.35.085-1.347.117-.085,0-.085.233,0,.233,2.121,0,3.383,0,6.077.064C294.165,18.685,294.165,18.42,294.08,18.42Z" transform="translate(443.555 7144.785)" fill="#fff"/>
  </g>
</svg>
