<svg xmlns="http://www.w3.org/2000/svg" width="226.38" height="224.207" viewBox="0 0 226.38 224.207">
  <g id="Group_1842" data-name="Group 1842" transform="translate(-355.217 -1335.684)">
    <g id="Group_1836" data-name="Group 1836" transform="translate(285.37 1258.433)">
      <g id="Group_1835" data-name="Group 1835" transform="translate(69.847 78.112)">
        <g id="Group_1829" data-name="Group 1829">
          <path id="Path_2000" data-name="Path 2000" d="M162.248,116.114c0-.009,0-.017,0-.026s0-.014,0-.021a23,23,0,0,0-.293-3.622A22.77,22.77,0,0,0,139.687,93.35l-.158,0-.02,0-.02,0a23,23,0,0,0-3.622.293,22.589,22.589,0,0,0-14.8,9.157c-.342.475-.659.963-.961,1.457a.46.46,0,0,0-.063.1,22.511,22.511,0,0,0-3.275,11.7c0,.009,0,.017,0,.026s0,.014,0,.021a22.985,22.985,0,0,0,.293,3.622,22.785,22.785,0,0,0,22.412,19.1,22.944,22.944,0,0,0,3.678-.3,22.587,22.587,0,0,0,14.8-9.157c.342-.475.659-.963.961-1.457a.477.477,0,0,0,.063-.1A22.512,22.512,0,0,0,162.248,116.114Zm-44.5-.514a21.548,21.548,0,0,1,3.018-10.558h7.112A35.8,35.8,0,0,0,126.2,115.6Zm11.126-10.558H139.02V115.6H127.169A34.824,34.824,0,0,1,128.876,105.042Zm11.12-.976V94.341a7.939,7.939,0,0,1,3.937,1.449c2.415,1.658,4.442,4.59,5.84,8.275Zm10.125.976a33.318,33.318,0,0,1,1.566,7.527c.1,1.017.145,2.029.159,3.031H140V105.042ZM137.585,94.592a7.077,7.077,0,0,1,1.434-.248v9.721h-9.795C131.07,99.171,134.028,95.593,137.585,94.592Zm1.434,21.983v10.558H128.895a33.333,33.333,0,0,1-1.566-7.527c-.1-1.017-.145-2.029-.16-3.031Zm0,11.534v9.724a7.945,7.945,0,0,1-3.937-1.449c-2.415-1.658-4.442-4.59-5.84-8.275Zm2.411,9.473a7.077,7.077,0,0,1-1.434.248V128.11h9.795C147.947,133,144.989,136.582,141.431,137.583ZM140,127.134V116.576h11.851a34.852,34.852,0,0,1-1.708,10.558Zm12.824-10.558h8.446a21.555,21.555,0,0,1-3.018,10.558h-7.112A35.779,35.779,0,0,0,152.821,116.576Zm8.445-.976h-8.444c-.013-1.033-.064-2.074-.162-3.122a34.917,34.917,0,0,0-1.49-7.436h7.092a21.677,21.677,0,0,1,2.729,7.559A21.955,21.955,0,0,1,161.266,115.6Zm-9.037-17.16a21.794,21.794,0,0,1,5.422,5.626h-6.815c-1.461-4.037-3.655-7.23-6.35-9.081-.068-.048-.139-.091-.208-.136A21.765,21.765,0,0,1,152.228,98.44Zm-17.514-3.578c-2.739,1.8-4.995,5.089-6.5,9.2h-6.833c.155-.234.312-.468.477-.7A21.6,21.6,0,0,1,134.715,94.862ZM117.75,116.576h8.444c.013,1.032.064,2.074.162,3.122a34.92,34.92,0,0,0,1.49,7.436h-7.092a21.69,21.69,0,0,1-2.73-7.56A22.036,22.036,0,0,1,117.75,116.576Zm3.616,11.534h6.814c1.462,4.037,3.655,7.23,6.35,9.08.071.049.143.091.214.137a21.916,21.916,0,0,1-13.379-9.217Zm22.936,9.2c2.739-1.8,4.995-5.089,6.5-9.2h6.834c-.156.234-.312.468-.478.7A21.605,21.605,0,0,1,144.3,137.314Z" transform="translate(-86.187 -83.417)" fill="none" stroke="#707070" stroke-width="1" opacity="0.2" style="mix-blend-mode: multiply;isolation: isolate"/>
          <g id="Group_1822" data-name="Group 1822" transform="translate(10.342 43.53)">
            <rect id="Rectangle_343" data-name="Rectangle 343" width="204.901" height="49.645" transform="translate(9.237)" fill="#fff" stroke="gray" stroke-miterlimit="10" stroke-width="1"/>
            <rect id="Rectangle_344" data-name="Rectangle 344" width="204.901" height="49.645" transform="translate(4.619 4.619)" fill="#fff" stroke="gray" stroke-miterlimit="10" stroke-width="1"/>
            <rect id="Rectangle_345" data-name="Rectangle 345" width="204.901" height="49.645" transform="translate(0 9.237)" fill="#fff" stroke="gray" stroke-miterlimit="10" stroke-width="1"/>
            <rect id="Rectangle_346" data-name="Rectangle 346" width="30.094" height="185.349" transform="translate(195.125 19.013) rotate(90)" fill="#fff" stroke="gray" stroke-miterlimit="10" stroke-width="1"/>
            <rect id="Rectangle_347" data-name="Rectangle 347" width="30.094" height="1.086" transform="translate(163.945 49.107) rotate(-90)" fill="#fff" stroke="gray" stroke-miterlimit="10" stroke-width="1"/>
            <rect id="Rectangle_348" data-name="Rectangle 348" width="21.797" height="1.086" transform="translate(14.395 44.958) rotate(-90)" fill="#fff" stroke="gray" stroke-miterlimit="10" stroke-width="1"/>
            <g id="Group_1821" data-name="Group 1821" transform="translate(174.233 28.215)">
              <path id="Path_2001" data-name="Path 2001" d="M357.862,197.81a4.808,4.808,0,1,1,3.4-8.207h0a4.807,4.807,0,0,1-3.4,8.207Zm0-8.311a3.5,3.5,0,1,0,2.479,1.025h0A3.493,3.493,0,0,0,357.862,189.5Z" transform="translate(-353.055 -188.197)" fill="#fff" stroke="gray" stroke-miterlimit="10" stroke-width="1"/>
              <path id="Path_2002" data-name="Path 2002" d="M367.889,203.68a.65.65,0,0,1-.461-.191l-3.292-3.292a.652.652,0,1,1,.922-.922l3.292,3.292a.652.652,0,0,1-.461,1.113Z" transform="translate(-356.848 -191.989)" fill="#fff" stroke="gray" stroke-miterlimit="10" stroke-width="1"/>
            </g>
          </g>
          <g id="Group_1823" data-name="Group 1823" transform="translate(124.679 13.516)">
            <rect id="Rectangle_349" data-name="Rectangle 349" width="20.491" height="0.508" fill="#9fc6ff"/>
            <rect id="Rectangle_350" data-name="Rectangle 350" width="20.491" height="0.508" transform="translate(0 2.159)" fill="#9fc6ff"/>
            <rect id="Rectangle_351" data-name="Rectangle 351" width="20.491" height="0.508" transform="translate(0 4.319)" fill="#9fc6ff"/>
            <rect id="Rectangle_352" data-name="Rectangle 352" width="20.491" height="0.508" transform="translate(0 6.478)" fill="#9fc6ff"/>
            <rect id="Rectangle_353" data-name="Rectangle 353" width="20.491" height="0.508" transform="translate(0 8.638)" fill="#9fc6ff"/>
            <rect id="Rectangle_354" data-name="Rectangle 354" width="13.359" height="0.508" transform="translate(0.001 10.797)" fill="#9fc6ff"/>
          </g>
          <g id="Group_1824" data-name="Group 1824" transform="translate(0 106.703)">
            <rect id="Rectangle_355" data-name="Rectangle 355" width="21.833" height="0.325" fill="#9fc6ff"/>
            <rect id="Rectangle_356" data-name="Rectangle 356" width="21.833" height="0.325" transform="translate(0 1.383)" fill="#9fc6ff"/>
            <rect id="Rectangle_357" data-name="Rectangle 357" width="21.833" height="0.325" transform="translate(0 2.766)" fill="#9fc6ff"/>
            <rect id="Rectangle_358" data-name="Rectangle 358" width="21.833" height="0.325" transform="translate(0 4.148)" fill="#9fc6ff"/>
            <rect id="Rectangle_359" data-name="Rectangle 359" width="21.833" height="0.325" transform="translate(0 5.531)" fill="#9fc6ff"/>
            <rect id="Rectangle_360" data-name="Rectangle 360" width="13.722" height="0.325" transform="translate(0 6.914)" fill="#9fc6ff"/>
          </g>
          <g id="Group_1825" data-name="Group 1825" transform="translate(89.469 8.616)">
            <path id="Path_2003" data-name="Path 2003" d="M211.246,103.762h0a4.119,4.119,0,0,0-4.119,4.119V121.47a4.119,4.119,0,0,0,4.119,4.119h0a4.119,4.119,0,0,0,4.12-4.119V107.881A4.119,4.119,0,0,0,211.246,103.762Z" transform="translate(-207.127 -95.662)" fill="#fff" stroke="#1ea2ff" stroke-miterlimit="10" stroke-width="1"/>
            <path id="Path_2004" data-name="Path 2004" d="M227.085,91.333h0a4.12,4.12,0,0,0-4.12,4.12v21.689a4.119,4.119,0,0,0,4.12,4.119h0a4.119,4.119,0,0,0,4.12-4.119V95.453A4.12,4.12,0,0,0,227.085,91.333Z" transform="translate(-212.643 -91.333)" fill="#fff" stroke="#1ea2ff" stroke-miterlimit="10" stroke-width="1"/>
            <path id="Path_2005" data-name="Path 2005" d="M242.924,116.19h0a4.12,4.12,0,0,0-4.12,4.12V125.8a4.119,4.119,0,0,0,4.12,4.119h0a4.119,4.119,0,0,0,4.119-4.119V120.31A4.119,4.119,0,0,0,242.924,116.19Z" transform="translate(-218.159 -99.99)" fill="#fff" stroke="#1ea2ff" stroke-miterlimit="10" stroke-width="1"/>
          </g>
          <g id="Group_1827" data-name="Group 1827" transform="translate(185.224 88.488)">
            <g id="Group_1826" data-name="Group 1826" transform="translate(4.229)">
              <path id="Path_2006" data-name="Path 2006" d="M372.317,243.37h16.654l-28.43-29.484h0l11.776,29.484" transform="translate(-360.541 -213.887)" fill="#fff" stroke="#1ea2ff" stroke-miterlimit="10" stroke-width="1"/>
            </g>
            <path id="Path_2007" data-name="Path 2007" d="M354.052,227.811l4.229-13.924,2.4,13.924Z" transform="translate(-354.052 -213.887)" fill="#fff" stroke="#1ea2ff" stroke-miterlimit="10" stroke-width="1" style="mix-blend-mode: multiply;isolation: isolate"/>
            <path id="Path_2008" data-name="Path 2008" d="M360.541,213.887v41.26l2.944-2.944,8.832-8.832Z" transform="translate(-356.312 -213.887)" fill="#fff" stroke="#1ea2ff" stroke-miterlimit="10" stroke-width="1"/>
          </g>
          <g id="Group_1828" data-name="Group 1828" transform="translate(175.426)">
            <path id="Path_2009" data-name="Path 2009" d="M382.491,78.112H346a7.011,7.011,0,0,0-6.981,6.981v18.844A7.011,7.011,0,0,0,346,110.919h26.777l-.195,6.591,6.761-6.591h3.149a7.011,7.011,0,0,0,6.981-6.981V85.093A7.011,7.011,0,0,0,382.491,78.112Zm-37.322,8.031a1.959,1.959,0,0,1,1.953-1.953h8.4a1.941,1.941,0,0,1,0,3.882h-8.4A1.954,1.954,0,0,1,345.169,86.143Zm35.248,18.233H365.893a1.928,1.928,0,1,1,0-3.856h14.524a1.928,1.928,0,0,1,0,3.856Zm0-8.152H349.075a1.928,1.928,0,0,1,0-3.857h31.342a1.928,1.928,0,0,1,0,3.857Zm0-8.152H361.866a1.941,1.941,0,0,1,0-3.882h18.551a1.941,1.941,0,0,1,0,3.882Z" transform="translate(-339.018 -78.112)" fill="#fff" stroke="#945dd6" stroke-miterlimit="10" stroke-width="1"/>
          </g>
        </g>
        <g id="Group_1834" data-name="Group 1834" transform="translate(25.388 0)">
          <g id="Group_1831" data-name="Group 1831" transform="translate(0)">
            <path id="Path_2010" data-name="Path 2010" d="M293.784,165.493A40.756,40.756,0,0,0,285.626,152H225.288a40.751,40.751,0,0,0-8.158,13.493l8.348,41.556a40.775,40.775,0,0,0,68.307-41.556Z" transform="translate(-137.582 -132.401)" fill="#fff" stroke="#945dd6" stroke-miterlimit="10" stroke-width="1.5"/>
            <path id="Path_2011" data-name="Path 2011" d="M295.414,185.587a40.638,40.638,0,0,1-10.746,25.749H224.7a40.836,40.836,0,0,1-8.348-41.556h76.654A40.536,40.536,0,0,1,295.414,185.587Z" transform="translate(-136.806 -136.688)" fill="#fff" stroke="#945dd6" stroke-miterlimit="10" stroke-width="1.5"/>
            <path id="Path_2012" data-name="Path 2012" d="M295.414,177.06a40.687,40.687,0,1,1-2.406-15.807A40.637,40.637,0,0,1,295.414,177.06Z" transform="translate(-136.806 -128.16)" fill="#fff" stroke="#945dd6" stroke-miterlimit="10" stroke-width="1.5" opacity="0.4"/>
            <path id="Path_2013" data-name="Path 2013" d="M277.845,141.941,219.214,195.41c-.3-.541-.589-1.09-.867-1.644a40.223,40.223,0,0,1-3.694-11.377v0L265.294,136.2A40.446,40.446,0,0,1,277.845,141.941Z" transform="translate(-136.984 -128.592)" fill="#fff" stroke="#945dd6" stroke-miterlimit="10" stroke-width="1.5" opacity="0.4"/>
            <path id="Path_2014" data-name="Path 2014" d="M296.383,166.072,241.26,216.337a40.713,40.713,0,0,1-14.78-11.11l60.194-54.894A40.782,40.782,0,0,1,296.383,166.072Z" transform="translate(-139.836 -131.999)" fill="#fff" stroke="#945dd6" stroke-miterlimit="10" stroke-width="1.5" opacity="0.4"/>
            <path id="Path_2015" data-name="Path 2015" d="M293.408,149.682a47.017,47.017,0,1,0-17.2,64.233A47.018,47.018,0,0,0,293.408,149.682Zm-72.84,42.07a37.1,37.1,0,1,1,50.683,13.575A37.1,37.1,0,0,1,220.568,191.752Z" transform="translate(-134.819 -126.173)" fill="#fff" stroke="#945dd6" stroke-miterlimit="10" stroke-width="1.5"/>
            <g id="Group_1830" data-name="Group 1830" transform="translate(7.06 95.404)">
              <path id="Path_2016" data-name="Path 2016" d="M124.228,251.89l5.811,1.355-4.814,3.595s-3.454-1.569-3.615-4.019Z" transform="translate(-121.61 -251.89)" fill="#fff" stroke="#945dd6" stroke-miterlimit="10" stroke-width="1.5"/>
              <path id="Path_2017" data-name="Path 2017" d="M134.3,257.544l-4.193,2.791-3.735-3.066,4.813-3.595Z" transform="translate(-122.759 -252.32)" fill="#fff" stroke="#945dd6" stroke-miterlimit="10" stroke-width="1.5"/>
            </g>
            <path id="Path_2018" data-name="Path 2018" d="M196.665,218.079c-6.18,4.566-12.509,8.872-18.882,13.1s-12.814,8.345-19.3,12.389c-6.493,4.023-13.01,8.005-19.587,11.883-3.274,1.964-6.589,3.857-9.881,5.79a19.429,19.429,0,0,1-5.267,2.33,16.319,16.319,0,0,1-3.014.505,12.733,12.733,0,0,1-3.409-.177,6.233,6.233,0,0,1-4.9-7.325,7.058,7.058,0,0,1,.213-.792,12.739,12.739,0,0,1,1.55-3.041,16.389,16.389,0,0,1,1.944-2.359,19.444,19.444,0,0,1,4.65-3.4c3.319-1.887,6.616-3.812,9.953-5.667,6.646-3.759,13.352-7.414,20.082-11.028q10.112-5.39,20.373-10.523c6.85-3.406,13.743-6.737,20.786-9.808a4.717,4.717,0,0,1,4.688,8.118Z" transform="translate(-112.307 -146.282)" fill="#fff" stroke="#945dd6" stroke-miterlimit="10" stroke-width="1.5"/>
          </g>
          <g id="Group_1833" data-name="Group 1833" transform="translate(4.318 20.233)">
            <path id="Path_2019" data-name="Path 2019" d="M131.781,203.458c-.379.612-.815,1.359-1.222,2.054-.407.712-.81,1.431-1.194,2.163-.788,1.45-1.546,2.922-2.253,4.417-.691,1.5-1.374,3.007-2,4.537-.3.769-.618,1.531-.9,2.305l-.424,1.161c-.085.219-.1.307-.154.465-.049.137-.079.313-.122.469a23.515,23.515,0,0,0-.444,4.575c-.043,1.626.017,3.293.085,4.968s.188,3.363.341,5.051c.118,1.689.3,3.394.458,5.066l-2.931.6c-.514-1.7-.915-3.378-1.32-5.084-.37-1.707-.706-3.426-1-5.166s-.5-3.5-.627-5.311a26.7,26.7,0,0,1,.144-5.7c.05-.264.082-.514.151-.79.063-.255.139-.587.2-.773l.371-1.289c.246-.861.528-1.707.813-2.555.586-1.686,1.221-3.354,1.935-4.987s1.473-3.244,2.3-4.826c.416-.788.854-1.568,1.3-2.345s.9-1.52,1.456-2.349Z" transform="translate(-117.997 -164.237)" fill="#fff" stroke="#1ea2ff" stroke-miterlimit="10" stroke-width="1"/>
            <path id="Path_2020" data-name="Path 2020" d="M131.364,410.527a7.236,7.236,0,0,1-1.56-.211.143.143,0,0,1-.105-.112.14.14,0,0,1,.061-.141c.2-.133,2-1.287,2.683-.98a.476.476,0,0,1,.279.393.8.8,0,0,1-.231.743A1.7,1.7,0,0,1,131.364,410.527Zm-1.164-.411a2.8,2.8,0,0,0,2.1-.1.526.526,0,0,0,.143-.5.2.2,0,0,0-.117-.177C131.966,409.177,130.932,409.673,130.2,410.115Z" transform="translate(-120.818 -214.609)" fill="#fff" stroke="#1ea2ff" stroke-miterlimit="10" stroke-width="1"/>
            <path id="Path_2021" data-name="Path 2021" d="M129.836,409.878a.138.138,0,0,1-.071-.019.14.14,0,0,1-.07-.121c0-.072.008-1.773.65-2.342a.723.723,0,0,1,.593-.187.488.488,0,0,1,.47.39c.134.666-.94,1.94-1.5,2.26A.132.132,0,0,1,129.836,409.878Zm1.005-2.4a.456.456,0,0,0-.31.122,3.2,3.2,0,0,0-.547,1.861c.562-.449,1.232-1.406,1.15-1.811-.014-.066-.052-.146-.231-.168A.6.6,0,0,0,130.842,407.483Z" transform="translate(-120.818 -214.169)" fill="#fff" stroke="#1ea2ff" stroke-miterlimit="10" stroke-width="1"/>
            <path id="Path_2022" data-name="Path 2022" d="M166.679,410.528a10.1,10.1,0,0,1-1.859-.211.141.141,0,0,1-.112-.118.139.139,0,0,1,.074-.143c.266-.139,2.619-1.339,3.344-.945a.449.449,0,0,1,.238.372.774.774,0,0,1-.253.681A2.213,2.213,0,0,1,166.679,410.528Zm-1.394-.411c1.311.217,2.283.161,2.64-.162a.5.5,0,0,0,.161-.448.175.175,0,0,0-.093-.152C167.6,409.141,166.254,409.653,165.285,410.117Z" transform="translate(-129.26 -214.61)" fill="#fff" stroke="#1ea2ff" stroke-miterlimit="10" stroke-width="1"/>
            <path id="Path_2023" data-name="Path 2023" d="M164.848,409.878a.133.133,0,0,1-.08-.026.138.138,0,0,1-.059-.125,3.945,3.945,0,0,1,.885-2.277,1.027,1.027,0,0,1,.775-.241c.388.039.5.236.525.395.109.669-1.283,1.944-1.988,2.262A.139.139,0,0,1,164.848,409.878Zm1.408-2.4a.732.732,0,0,0-.483.183,3.237,3.237,0,0,0-.753,1.823c.718-.436,1.663-1.438,1.6-1.84-.006-.033-.023-.136-.278-.162A.809.809,0,0,0,166.255,407.483Z" transform="translate(-129.26 -214.169)" fill="#fff" stroke="#1ea2ff" stroke-miterlimit="10" stroke-width="1"/>
            <path id="Path_2024" data-name="Path 2024" d="M147.617,174.494c.458,3.542,1.548,10.728-1.051,12.9,0,0,.725,3.611,7.225,4.033,7.148.464,3.646-3.326,3.646-3.326-3.841-1.185-3.552-4.073-2.7-6.746Z" transform="translate(-124.886 -158.058)" fill="#fff" stroke="#1ea2ff" stroke-miterlimit="10" stroke-width="1"/>
            <path id="Path_2025" data-name="Path 2025" d="M165.385,164.38a.28.28,0,0,1-.247-.412,2.775,2.775,0,0,1,2.074-1.491.28.28,0,0,1,.049.557h0a2.219,2.219,0,0,0-1.629,1.2A.281.281,0,0,1,165.385,164.38Z" transform="translate(-129.356 -155.16)" fill="#fff" stroke="#1ea2ff" stroke-miterlimit="10" stroke-width="1"/>
            <path id="Path_2026" data-name="Path 2026" d="M168.159,169.1a12.7,12.7,0,0,0,1.977,2.869,2.049,2.049,0,0,1-1.661.477Z" transform="translate(-130.092 -156.757)" fill="#fff" stroke="#1ea2ff" stroke-miterlimit="10" stroke-width="1"/>
            <path id="Path_2027" data-name="Path 2027" d="M167.5,167.791c.045.474.332.836.643.806s.525-.438.48-.912-.332-.835-.643-.806S167.451,167.316,167.5,167.791Z" transform="translate(-129.931 -156.221)" fill="#fff" stroke="#1ea2ff" stroke-miterlimit="10" stroke-width="1"/>
            <path id="Path_2028" data-name="Path 2028" d="M167.954,166.792l1.109-.436S168.562,167.3,167.954,166.792Z" transform="translate(-130.043 -156.095)" fill="#fff" stroke="#1ea2ff" stroke-miterlimit="10" stroke-width="1"/>
            <path id="Path_2029" data-name="Path 2029" d="M156.332,406.2h5.908l.394-13.681h-5.908Z" transform="translate(-127.241 -210.627)" fill="#fff" stroke="#1ea2ff" stroke-miterlimit="10" stroke-width="1"/>
            <path id="Path_2030" data-name="Path 2030" d="M120.962,406.2h5.908l1.9-13.681h-5.908Z" transform="translate(-118.712 -210.627)" fill="#fff" stroke="#1ea2ff" stroke-miterlimit="10" stroke-width="1"/>
            <path id="Path_2031" data-name="Path 2031" d="M126.727,409.642h-6.636a.468.468,0,0,0-.472.4l-.756,5.251a.949.949,0,0,0,.947,1.05c2.314-.04,3.429-.176,6.348-.176,1.8,0,4.419.187,6.9.187,2.425,0,2.612-2.452,1.579-2.673-4.63-1-5.361-2.369-6.92-3.679A1.546,1.546,0,0,0,126.727,409.642Z" transform="translate(-118.204 -214.757)" fill="#fff" stroke="#1ea2ff" stroke-miterlimit="10" stroke-width="1"/>
            <path id="Path_2032" data-name="Path 2032" d="M161.882,409.642h-6.637a.468.468,0,0,0-.472.4l-.756,5.251a.949.949,0,0,0,.947,1.05c2.314-.04,3.429-.176,6.348-.176,1.8,0,5.509.187,7.99.187,2.425,0,2.611-2.452,1.579-2.673-4.63-1-6.452-2.369-8.012-3.679A1.546,1.546,0,0,0,161.882,409.642Z" transform="translate(-126.68 -214.757)" fill="#fff" stroke="#1ea2ff" stroke-miterlimit="10" stroke-width="1"/>
            <g id="Group_1832" data-name="Group 1832" transform="translate(3.165 181.892)">
              <path id="Path_2033" data-name="Path 2033" d="M162.693,392.521l-.2,7.052h-5.91l.2-7.052Z" transform="translate(-130.466 -392.521)" fill="#fff" stroke="#1ea2ff" stroke-miterlimit="10" stroke-width="1"/>
              <path id="Path_2034" data-name="Path 2034" d="M123.15,392.521h5.91l-.982,7.052h-5.91Z" transform="translate(-122.168 -392.521)" fill="#fff" stroke="#1ea2ff" stroke-miterlimit="10" stroke-width="1"/>
            </g>
            <path id="Path_2035" data-name="Path 2035" d="M135.656,202.49a30.308,30.308,0,0,1-3.878,4.872l-.675-.448-7.483-5s4.106-9.046,7.156-9.539c2.937-.47,5.077,2.565,6.086,5.813C137.227,199.364,136.6,200.958,135.656,202.49Z" transform="translate(-119.353 -162.357)" fill="#fff" stroke="#1ea2ff" stroke-miterlimit="10" stroke-width="1"/>
            <path id="Path_2036" data-name="Path 2036" d="M138.033,205.124A30.309,30.309,0,0,1,134.155,210l-.675-.448c.334-2.732,1.4-5.441,2.611-6.3C136.834,203.326,137.494,204.115,138.033,205.124Z" transform="translate(-121.731 -164.991)" fill="#fff" stroke="#1ea2ff" stroke-miterlimit="10" stroke-width="1"/>
            <path id="Path_2037" data-name="Path 2037" d="M163.527,206.835v.008c-.357,2.269-.82,4.955-1.442,8.135-.789,4.068-1.821,8.947-3.165,14.783-9.5-.622-19.321-1.26-23.943-1.556,1.032-9.721,1.434-15.732-1.928-36.032a70.443,70.443,0,0,1,10.26-.675,76.314,76.314,0,0,1,10.867.706c4.644.729,9.865,2.155,9.865,2.155S165.378,194.928,163.527,206.835Z" transform="translate(-121.627 -162.156)" fill="#fff" stroke="#1ea2ff" stroke-miterlimit="10" stroke-width="1"/>
            <path id="Path_2038" data-name="Path 2038" d="M171.713,211.539v.008c-.357,2.269-.82,4.955-1.442,8.135A58.807,58.807,0,0,1,167,211h4.447Z" transform="translate(-129.813 -166.86)" fill="#fff" stroke="#1ea2ff" stroke-miterlimit="10" stroke-width="1"/>
            <path id="Path_2039" data-name="Path 2039" d="M146.245,164.95c.908,5.793,1.168,8.264,4.392,10.977,4.851,4.08,11.767,1.7,12.609-4.247.757-5.353-.854-13.926-6.775-15.707A8,8,0,0,0,146.245,164.95Z" transform="translate(-124.784 -153.505)" fill="#fff" stroke="#1ea2ff" stroke-miterlimit="10" stroke-width="1"/>
            <path id="Path_2040" data-name="Path 2040" d="M149.739,241.008s-.379,10.541-1.29,23.836c-.759,11.156-1.9,24.239-3.506,34.666-.015.1-.03.19-.046.288-2.876,18.456-15.618,61.6-15.618,61.6H121.22s6.64-41.663,8.1-59.921c3.7-46.193-5.563-51.422,2.808-61.606Z" transform="translate(-118.774 -173.821)" fill="#fff" stroke="#1ea2ff" stroke-miterlimit="10" stroke-width="1"/>
            <path id="Path_2041" data-name="Path 2041" d="M154.659,269.093c-.759,11.156-1.9,24.239-3.506,34.666-2.724-13.546-7.2-33.33-1.191-46.269C151.4,261.148,153.088,265.306,154.659,269.093Z" transform="translate(-124.985 -178.07)" fill="#fff" stroke="#1ea2ff" stroke-miterlimit="10" stroke-width="1"/>
            <path id="Path_2042" data-name="Path 2042" d="M161.565,241.554s6.811,40.485,6.424,58.5c-.4,18.739-7.269,61.477-7.269,61.477h-7.989s1.264-41.643.559-60.046c-.77-20.062-9.258-61.07-9.258-61.07Z" transform="translate(-124.275 -173.953)" fill="#fff" stroke="#1ea2ff" stroke-miterlimit="10" stroke-width="1"/>
            <path id="Path_2043" data-name="Path 2043" d="M153.583,399.363H164.29l.836-3.594-11.924.082Z" transform="translate(-126.486 -211.412)" fill="#fff" stroke="#1ea2ff" stroke-miterlimit="10" stroke-width="1"/>
            <path id="Path_2044" data-name="Path 2044" d="M119.682,399.363H130.39l.836-3.594-11.469.082Z" transform="translate(-118.404 -211.412)" fill="#fff" stroke="#1ea2ff" stroke-miterlimit="10" stroke-width="1"/>
            <path id="Path_2045" data-name="Path 2045" d="M134.839,237.935l-1.219,2.073c-.095.161.091.343.368.361L159.1,242c.215.014.4-.08.424-.215l.355-2.129c.024-.147-.155-.285-.391-.3l-24.245-1.575A.434.434,0,0,0,134.839,237.935Z" transform="translate(-121.758 -173.317)" fill="#fff" stroke="#1ea2ff" stroke-miterlimit="10" stroke-width="1"/>
            <path id="Path_2046" data-name="Path 2046" d="M139.02,240.85l-.65-.042c-.13-.008-.224-.082-.209-.162l.486-2.765c.014-.081.131-.14.261-.132l.649.043c.13.008.224.081.209.162l-.486,2.765C139.266,240.8,139.149,240.858,139.02,240.85Z" transform="translate(-122.859 -173.31)" fill="#fff" stroke="#1ea2ff" stroke-miterlimit="10" stroke-width="1"/>
            <path id="Path_2047" data-name="Path 2047" d="M159.76,242.2l-.65-.043c-.129-.008-.223-.081-.209-.162l.485-2.765c.014-.081.132-.14.261-.132l.65.042c.129.008.223.081.209.162l-.486,2.765C160.006,242.146,159.89,242.206,159.76,242.2Z" transform="translate(-127.86 -173.634)" fill="#fff" stroke="#1ea2ff" stroke-miterlimit="10" stroke-width="1"/>
            <path id="Path_2048" data-name="Path 2048" d="M173.834,203.314c.908,3.042,1.776,6.108,2.619,9.173l2.54,9.174.319,1.138.08.285.039.14.025.073a2.288,2.288,0,0,0,.1.3,4.593,4.593,0,0,0,.794,1.273,12.363,12.363,0,0,0,3.108,2.4,39.767,39.767,0,0,0,8.336,3.369l-.433,2.96a31.66,31.66,0,0,1-9.927-2.143,15.773,15.773,0,0,1-4.773-2.948,9.4,9.4,0,0,1-1.98-2.6,7.714,7.714,0,0,1-.357-.806l-.082-.207-.052-.144-.1-.286-.4-1.142q-1.587-4.565-2.979-9.151c-.953-3.057-1.852-6.12-2.686-9.215Z" transform="translate(-130.059 -165.007)" fill="#fff" stroke="#1ea2ff" stroke-miterlimit="10" stroke-width="1"/>
            <path id="Path_2049" data-name="Path 2049" d="M171.416,195.083c3.029.992,6.222,10.923,6.222,10.923l-10.959,4.716s-4.579-11.139-2.536-13.689C166.27,194.378,167.932,193.942,171.416,195.083Z" transform="translate(-128.998 -162.879)" fill="#fff" stroke="#1ea2ff" stroke-miterlimit="10" stroke-width="1"/>
            <path id="Path_2050" data-name="Path 2050" d="M157.55,154.974c-1.94-2.393-16.889-4.1-17.688,2.412-5.3,3.716-.269,13.324.489,15.77-3.668,1.012-15.472,5.056-6.872,12.9s21.606,6.507,24.145-1.607c1.775-5.677-3.866-15.171-3.739-18.5S160.863,159.062,157.55,154.974Z" transform="translate(-120.99 -152.835)" fill="#fff" stroke="#1ea2ff" stroke-miterlimit="10" stroke-width="1"/>
            <path id="Path_2051" data-name="Path 2051" d="M143.309,175.809a.19.19,0,0,1-.147-.069c-1.374-1.674-6.148-10.441-4.474-14.621a3.635,3.635,0,0,1,3.206-2.256.19.19,0,1,1,.046.376,3.278,3.278,0,0,0-2.9,2.021c-1.619,4.039,3.069,12.6,4.414,14.24a.19.19,0,0,1-.027.267A.187.187,0,0,1,143.309,175.809Z" transform="translate(-122.902 -154.288)" fill="#fff" stroke="#1ea2ff" stroke-miterlimit="10" stroke-width="1"/>
            <path id="Path_2052" data-name="Path 2052" d="M159.826,169.037a5.012,5.012,0,0,0,1.486,2.9c1.078,1.029,2.094.323,2.194-.986.09-1.178-.363-3.132-1.638-3.673C160.612,166.745,159.662,167.72,159.826,169.037Z" transform="translate(-128.079 -156.282)" fill="#fff" stroke="#1ea2ff" stroke-miterlimit="10" stroke-width="1"/>
          </g>
          <path id="Path_2053" data-name="Path 2053" d="M193.367,237.613l3.829-1.3-.6,4.591s-1.5.7-3.456-1.018l-1.865-1.195,1.466-.8A3.967,3.967,0,0,1,193.367,237.613Z" transform="translate(-119.483 -137.106)" fill="#fff" stroke="#1ea2ff" stroke-miterlimit="10" stroke-width="1"/>
          <path id="Path_2054" data-name="Path 2054" d="M202.448,236.293l-1.171,4.015-2.1.59.6-4.592Z" transform="translate(-122.067 -137.099)" fill="#fff" stroke="#1ea2ff" stroke-miterlimit="10" stroke-width="1"/>
        </g>
      </g>
    </g>
    <g id="Group_1837" data-name="Group 1837" transform="translate(426.302 1523.734) rotate(-60)">
      <path id="Path_1880" data-name="Path 1880" d="M51.751,13.866A27.732,27.732,0,1,0,41.608,51.753,27.733,27.733,0,0,0,51.751,13.866ZM8.788,38.681a21.882,21.882,0,1,1,29.895,8.007A21.883,21.883,0,0,1,8.788,38.681Z" transform="translate(41.79 0)" fill="#fff" stroke="#1ea2ff" stroke-width="2"/>
      <path id="Path_1881" data-name="Path 1881" d="M49.757,5.021c-3.645,2.693-7.378,5.233-11.137,7.729s-7.558,4.922-11.381,7.307-7.674,4.722-11.553,7.009c-1.931,1.158-3.886,2.275-5.828,3.415A11.458,11.458,0,0,1,6.75,31.855a9.622,9.622,0,0,1-1.778.3,7.51,7.51,0,0,1-2.011-.1,3.676,3.676,0,0,1-2.891-4.32A4.164,4.164,0,0,1,.2,27.261a7.513,7.513,0,0,1,.914-1.794,9.67,9.67,0,0,1,1.147-1.392,11.469,11.469,0,0,1,2.743-2c1.958-1.113,3.9-2.248,5.87-3.342,3.92-2.217,7.876-4.373,11.845-6.5s7.979-4.194,12.017-6.207S42.838,2.044,46.992.233a2.782,2.782,0,0,1,2.765,4.788Z" transform="translate(0 37.328)" fill="#fff" stroke="#1ea2ff" stroke-width="2"/>
    </g>
    <g id="Group_1838" data-name="Group 1838" transform="translate(492.021 1533.635) rotate(-60)">
      <path id="Path_1880-2" data-name="Path 1880" d="M37.007,9.916a19.831,19.831,0,1,0-7.253,27.093A19.832,19.832,0,0,0,37.007,9.916ZM6.284,27.66a15.648,15.648,0,1,1,21.377,5.726A15.648,15.648,0,0,1,6.284,27.66Z" transform="translate(29.884 0)" fill="#fff" stroke="gray" stroke-width="2"/>
      <path id="Path_1881-2" data-name="Path 1881" d="M35.581,3.59C32.975,5.516,30.3,7.332,27.617,9.117s-5.4,3.52-8.139,5.225-5.488,3.377-8.262,5.012c-1.381.828-2.779,1.627-4.168,2.442a8.194,8.194,0,0,1-2.222.983,6.882,6.882,0,0,1-1.271.213,5.369,5.369,0,0,1-1.438-.075A2.629,2.629,0,0,1,.051,19.828a2.977,2.977,0,0,1,.09-.334,5.372,5.372,0,0,1,.654-1.283,6.915,6.915,0,0,1,.82-1,8.2,8.2,0,0,1,1.961-1.433c1.4-.8,2.79-1.608,4.2-2.39,2.8-1.586,5.632-3.127,8.47-4.651s5.705-3,8.593-4.439S30.633,1.462,33.6.166A1.99,1.99,0,0,1,35.581,3.59Z" transform="translate(0 26.693)" fill="#fff" stroke="gray" stroke-width="2"/>
    </g>
  </g>
</svg>
