<svg xmlns="http://www.w3.org/2000/svg" width="143.582" height="143.582" viewBox="0 0 143.582 143.582">
  <g id="noun_waves_702569" transform="translate(-20 -14)">
    <g id="Group_1" data-name="Group 1" transform="translate(20 14)">
      <path id="Path_59" data-name="Path 59" d="M55.7,82.967c11.152,4.381,23.5,4.381,40.426-5.775C76.809,65.044,69.441,71.217,55.7,82.967Z" transform="translate(27.342 42.095)" fill="#1ea2ff"/>
      <path id="Path_60" data-name="Path 60" d="M53.4,63.75c13.94,8.961,28.278,13.741,47.993,4.381C79.289,55.983,65.349,57.576,53.4,63.75Z" transform="translate(25.062 30.644)" fill="#1ea2ff"/>
      <path id="Path_61" data-name="Path 61" d="M61.738,76.577c-2.788-1.792-5.377-3.784-7.966-5.377-7.767,4.58-16.529,7.966-27.482,7.966H24.1A72.305,72.305,0,0,0,51.183,96.69,102.181,102.181,0,0,0,72.492,83.945C68.907,81.555,65.323,78.967,61.738,76.577Z" transform="translate(-3.987 42.71)" fill="#1ea2ff"/>
      <path id="Path_62" data-name="Path 62" d="M49.248,53.858C39.092,49.277,27.741,47.684,14,52.264a71.725,71.725,0,0,0,3.585,20.711C27.343,69.391,36.7,62.819,46.46,55.849A33.781,33.781,0,0,1,49.248,53.858Z" transform="translate(-14 21.219)" fill="#1ea2ff"/>
      <path id="Path_63" data-name="Path 63" d="M51.656,71.583C42.1,66.6,31.543,64.016,18.2,67.8c1.394,2.589,2.987,5.178,4.58,7.567C34.53,77.558,43.491,75.566,51.656,71.583Z" transform="translate(-9.836 37.547)" fill="#1ea2ff"/>
      <path id="Path_64" data-name="Path 64" d="M75.3,71.676a86.585,86.585,0,0,1,7.767,4.58A58.093,58.093,0,0,0,88.842,66.7c-.4-.2-.6-.4-1-.6A83.976,83.976,0,0,1,75.3,71.676Z" transform="translate(46.774 37.653)" fill="#1ea2ff"/>
      <path id="Path_65" data-name="Path 65" d="M56.617,83.9c20.113-13.343,42.816-23.5,72.09-5.377,7.767,2.39,16.728,5.974,28.477,10.953,0-1.195.2-2.589.2-3.784A71.745,71.745,0,0,0,14.2,79.12C30.928,74.34,44.669,77.726,56.617,83.9Z" transform="translate(-13.802 -14)" fill="#1ea2ff"/>
      <path id="Path_66" data-name="Path 66" d="M88.373,61.271a23.153,23.153,0,0,1,.8-3.585C86.58,56.491,84.191,55.5,82,54.5,83.991,56.691,86.182,58.881,88.373,61.271Z" transform="translate(53.417 26.153)" fill="#1ea2ff"/>
      <path id="Path_67" data-name="Path 67" d="M75.957,74.055A78.491,78.491,0,0,1,56.64,63.7c-2.589,1.792-4.979,3.585-7.567,5.377a73.92,73.92,0,0,1-6.373,4.58l5.377,3.585c4.381,2.987,8.563,5.974,12.745,8.364a29.8,29.8,0,0,1,2.589-2.191C67.593,80.03,71.576,76.644,75.957,74.055Z" transform="translate(14.454 35.274)" fill="#1ea2ff"/>
      <path id="Path_68" data-name="Path 68" d="M64.641,65.861l-4.182-2.987c-2.788-2.191-5.576-4.182-8.563-6.173-3.784,1.792-7.966,3.585-12.347,5.775-3.784,1.792-7.767,3.585-11.949,5.576a61.214,61.214,0,0,1,22.5,8.364c2.987-1.991,5.974-4.182,8.961-6.373C61.056,68.449,62.848,67.055,64.641,65.861Z" transform="translate(-0.517 28.334)" fill="#1ea2ff"/>
      <path id="Path_69" data-name="Path 69" d="M60.726,79.6A127.392,127.392,0,0,1,43.6,91.349a67.442,67.442,0,0,0,12.745,1.195A70.028,70.028,0,0,0,89.8,84.18a37.26,37.26,0,0,1-7.966.8A49.422,49.422,0,0,1,60.726,79.6Z" transform="translate(15.346 51.038)" fill="#1ea2ff"/>
      <path id="Path_70" data-name="Path 70" d="M75.544,45.659C62.4,44.664,50.85,50.04,39.3,57.209L41.092,58.4C55.829,51.634,66.383,47.452,75.544,45.659Z" transform="translate(11.083 17.27)" fill="#1ea2ff"/>
      <path id="Path_71" data-name="Path 71" d="M44.1,60.346c1.593,1.195,3.385,2.39,4.979,3.585,2.191,1.593,4.182,3.186,6.373,4.779,14.936-8.961,33.058-13.143,63.526,4.979a11.114,11.114,0,0,0,1.593-1c-8.961-9.758-17.325-16.927-24.893-21.707C79.547,46.6,68.4,49.393,44.1,60.346Z" transform="translate(15.842 20.705)" fill="#1ea2ff"/>
      <path id="Path_72" data-name="Path 72" d="M37.586,54.2c-.2-.2-.4-.2-.6-.4-.8.6-1.792,1.195-2.589,1.792A22.127,22.127,0,0,1,37.586,54.2Z" transform="translate(6.225 25.459)" fill="#1ea2ff"/>
    </g>
  </g>
</svg>
