<svg xmlns="http://www.w3.org/2000/svg" width="182.696" height="165.943" viewBox="0 0 182.696 165.943">
  <g id="Group_1275" data-name="Group 1275" transform="translate(-194.91 -164.701)">
    <g id="Group_1274" data-name="Group 1274" transform="translate(201.758 167.369)">
      <g id="Group_1270" data-name="Group 1270" transform="translate(80.661 38.367)">
        <path id="Path_1412" data-name="Path 1412" d="M330.586,285.493l-88.339,23.182V210.941l88.339-23.178Z" transform="translate(-242.247 -187.763)" fill="#1ea2ff" stroke="#fff" stroke-width="5"/>
        <path id="Path_1413" data-name="Path 1413" d="M330.586,285.493l-88.339,23.182V210.941l88.339-23.178Z" transform="translate(-242.247 -187.763)" fill="#1ea2ff" stroke="#fff" stroke-linecap="round" stroke-linejoin="round" stroke-width="5"/>
      </g>
      <g id="Group_1271" data-name="Group 1271">
        <path id="Path_1414" data-name="Path 1414" d="M287.473,167.369,201.758,190.55l83.281,43.227L370.758,210.6Z" transform="translate(-201.758 -167.369)" fill="#1ea2ff" stroke="#fff" stroke-width="5"/>
        <path id="Path_1415" data-name="Path 1415" d="M287.473,167.369,201.758,190.55l83.281,43.227L370.758,210.6Z" transform="translate(-201.758 -167.369)" fill="#1ea2ff" stroke="#fff" stroke-linecap="round" stroke-linejoin="round" stroke-width="5"/>
      </g>
      <g id="Group_1272" data-name="Group 1272" transform="translate(0 23.181)">
        <path id="Path_1416" data-name="Path 1416" d="M201.758,272.669,287.583,314.4V220.041L201.758,178.3Z" transform="translate(-201.758 -178.305)" fill="#1ea2ff" stroke="#fff" stroke-width="5"/>
        <path id="Path_1417" data-name="Path 1417" d="M201.758,272.669,287.583,314.4V220.041L201.758,178.3Z" transform="translate(-201.758 -178.305)" fill="#1ea2ff" stroke="#fff" stroke-linecap="round" stroke-linejoin="round" stroke-width="5"/>
      </g>
      <g id="Group_1273" data-name="Group 1273" transform="translate(44.886 11.146)">
        <line id="Line_2" data-name="Line 2" x2="82.433" y2="44.122" fill="#fff" stroke="#fff" stroke-width="5"/>
        <line id="Line_3" data-name="Line 3" x2="82.433" y2="44.122" stroke-width="5" stroke="#fff" stroke-linecap="round" stroke-linejoin="round" fill="none"/>
      </g>
    </g>
  </g>
</svg>
