<svg xmlns="http://www.w3.org/2000/svg" xmlns:xlink="http://www.w3.org/1999/xlink" width="150" height="151" viewBox="0 0 150 151">
  <defs>
    <filter id="Rectangle_167" x="0" y="0" width="150" height="151" filterUnits="userSpaceOnUse">
      <feOffset dy="3" input="SourceAlpha"/>
      <feGaussianBlur stdDeviation="3" result="blur"/>
      <feFlood flood-opacity="0.161"/>
      <feComposite operator="in" in2="blur"/>
      <feComposite in="SourceGraphic"/>
    </filter>
  </defs>
  <g id="Group_1408" data-name="Group 1408" transform="translate(-1028 -3442)">
    <g transform="matrix(1, 0, 0, 1, 1028, 3442)" filter="url(#Rectangle_167)">
      <rect id="Rectangle_167-2" data-name="Rectangle 167" width="132" height="133" rx="12" transform="translate(9 6)" fill="#1ea2ff"/>
    </g>
    <g id="Group_1402" data-name="Group 1402" transform="translate(1262.134 3497.885)">
      <path id="Path_1536" data-name="Path 1536" d="M-94.983,67.925c.159-.008.291-.02.424-.02,2.556,0,5.112-.032,7.668.011a7.349,7.349,0,0,1,4.577,1.545,5.769,5.769,0,0,1,.5,8.226c-.3.291-.65.529-1,.81.081.058.16.124.248.176a6.488,6.488,0,0,1,2.513,8.988,5.988,5.988,0,0,1-4.357,2.895,8.3,8.3,0,0,1-1.5.121c-2.9.011-5.792.006-8.688,0-.119,0-.239-.012-.383-.019Zm2.527,20.511a1.458,1.458,0,0,0,.2.031c2.066,0,4.132.027,6.2-.019A4.263,4.263,0,0,0-83.4,87.6a3.781,3.781,0,0,0,1.358-1.882,4.744,4.744,0,0,0-4.41-6.089c-1.888-.056-3.778-.027-5.667-.034a3.331,3.331,0,0,0-.336.034Zm0-11.077h.442c1.428,0,2.856.007,4.283,0a14.208,14.208,0,0,0,1.872-.075,3.216,3.216,0,0,0,2.814-2.172A3.515,3.515,0,0,0-85.382,70.4a4.271,4.271,0,0,0-1.155-.228c-1.93-.037-3.861-.04-5.791-.052a.44.44,0,0,0-.129.052Z" transform="translate(-48.187 -41.063)" fill="#fff"/>
      <path id="Path_1537" data-name="Path 1537" d="M-199.64,17.6V-5.043c.149-.009.269-.023.389-.023,2.189,0,4.378-.012,6.567.006a11.536,11.536,0,0,1,4.38.832,7.368,7.368,0,0,1,3.54,2.9A11.856,11.856,0,0,1-183.1,3.191a19.4,19.4,0,0,1-.232,7.77,8.144,8.144,0,0,1-7.6,6.531,18.5,18.5,0,0,1-1.872.1c-2.121.012-4.242,0-6.363,0Zm2.53-2.171a40.21,40.21,0,0,0,6.084-.224,6.079,6.079,0,0,0,5.016-4.665,15.17,15.17,0,0,0,.456-2.765,14.322,14.322,0,0,0-.61-5.84,6.451,6.451,0,0,0-3.659-4.285,7.825,7.825,0,0,0-2.328-.535c-1.463-.092-2.935-.045-4.4-.053-.554,0-.555,0-.555.548q0,8.627,0,17.255Z" transform="translate(-5.358 -11.204)" fill="#fff"/>
      <path id="Path_1538" data-name="Path 1538" d="M-159.693,90.689h-2.469V79.9h-12.181v10.77h-2.536V67.953h2.511v9.514h12.2V67.954h2.48Z" transform="translate(-14.672 -41.088)" fill="#fff"/>
      <path id="Path_1539" data-name="Path 1539" d="M-121.187,67.925h2.52v.48q0,7.569,0,15.137a7.567,7.567,0,0,1-6.453,7.7,10.5,10.5,0,0,1-5.816-.475,7.587,7.587,0,0,1-2.829-1.885,7.122,7.122,0,0,1-1.991-4.868c-.042-5.3-.016-10.608-.015-15.912a1.241,1.241,0,0,1,.023-.155h2.518v.506c0,5,.01,10.009-.005,15.014a5.306,5.306,0,0,0,1.846,4.178,6.1,6.1,0,0,0,4.557,1.456,7.557,7.557,0,0,0,1.761-.3,5.5,5.5,0,0,0,3.894-5.242c-.028-5.019-.008-10.036-.008-15.055Z" transform="translate(-31.492 -41.076)" fill="#fff"/>
      <path id="Path_1540" data-name="Path 1540" d="M-141.811,17.593c-.893,0-1.707.014-2.52-.016-.112,0-.262-.2-.318-.342-.825-2.069-1.645-4.141-2.443-6.221a.6.6,0,0,0-.669-.462q-4.223.028-8.446,0a.523.523,0,0,0-.582.405c-.8,2.094-1.623,4.179-2.425,6.272a.472.472,0,0,1-.527.372c-.744-.022-1.489-.007-2.29-.007.077-.211.128-.363.186-.511q3.526-8.926,7.051-17.853c.513-1.3,1.017-2.606,1.5-3.917a.509.509,0,0,1,.6-.4,8.891,8.891,0,0,0,1.345,0,.628.628,0,0,1,.738.489q3.493,8.851,7.019,17.688c.532,1.338,1.069,2.674,1.6,4.012C-141.934,17.242-141.887,17.382-141.811,17.593ZM-151.964-1.4l-3.824,9.8h7.657C-149.417,5.112-150.682,1.878-151.964-1.4Z" transform="translate(-20.749 -11.197)" fill="#fff"/>
      <path id="Path_1541" data-name="Path 1541" d="M-81.652,17.6c.087-.238.138-.391.2-.541q3.5-8.875,7.007-17.749c.528-1.34,1.049-2.683,1.554-4.032a.473.473,0,0,1,.545-.351c.5.019,1.007.024,1.509,0a.5.5,0,0,1,.561.389q1.638,4.218,3.305,8.426,2.643,6.654,5.308,13.3c.064.161.123.324.209.552-.9,0-1.737.012-2.574-.017-.1,0-.219-.215-.273-.353-.818-2.06-1.636-4.12-2.427-6.191a.631.631,0,0,0-.711-.472q-4.2.024-8.4,0a.5.5,0,0,0-.558.385c-.8,2.095-1.626,4.181-2.426,6.276a.5.5,0,0,1-.561.386C-80.123,17.584-80.855,17.6-81.652,17.6Zm10.064-19-3.827,9.81h7.664Z" transform="translate(-53.643 -11.201)" fill="#fff"/>
      <path id="Path_1542" data-name="Path 1542" d="M-102-2.955c-.94,0-1.81,0-2.678,0-1.4,0-2.8.022-4.2,0-.372,0-.448.121-.447.468q.014,9.772.007,19.544c0,.536,0,.536-.523.537h-2.021V-2.407c0-.525,0-.531-.527-.533q-3.142-.017-6.283-.026h-.519V-5.048c.151-.007.295-.02.439-.02q8.14,0,16.28-.008c.359,0,.513.071.485.467C-102.026-4.084-102-3.555-102-2.955Z" transform="translate(-38.28 -11.201)" fill="#fff"/>
      <path id="Path_1543" data-name="Path 1543" d="M-90.705,96.545v-8.8a3.329,3.329,0,0,1,.336-.034c1.889.007,3.779-.022,5.667.034a4.744,4.744,0,0,1,4.41,6.089,3.781,3.781,0,0,1-1.358,1.882,4.263,4.263,0,0,1-2.66.844c-2.065.046-4.132.018-6.2.019A1.455,1.455,0,0,1-90.705,96.545Z" transform="translate(-49.938 -49.172)" fill="#1ea2ff"/>
      <path id="Path_1544" data-name="Path 1544" d="M-90.706,78.9V71.718a.439.439,0,0,1,.129-.052c1.93.012,3.861.015,5.791.052a4.27,4.27,0,0,1,1.155.228A3.515,3.515,0,0,1-81.3,76.653a3.216,3.216,0,0,1-2.814,2.172,14.209,14.209,0,0,1-1.872.075c-1.427.009-2.855,0-4.283,0Z" transform="translate(-49.938 -42.607)" fill="#1ea2ff"/>
      <path id="Path_1545" data-name="Path 1545" d="M-195.358,16.905v-.564q0-8.627,0-17.255c0-.548,0-.551.555-.548,1.468.008,2.94-.038,4.4.053a7.825,7.825,0,0,1,2.328.535,6.451,6.451,0,0,1,3.659,4.285,14.322,14.322,0,0,1,.61,5.84,15.168,15.168,0,0,1-.456,2.765,6.079,6.079,0,0,1-5.016,4.665A40.209,40.209,0,0,1-195.358,16.905Z" transform="translate(-7.11 -12.678)" fill="#1ea2ff"/>
      <path id="Path_1546" data-name="Path 1546" d="M-147.64,1.153c1.282,3.279,2.547,6.513,3.833,9.8h-7.657Z" transform="translate(-25.073 -13.751)" fill="#1ea2ff"/>
      <path id="Path_1547" data-name="Path 1547" d="M-67.267,1.151l3.837,9.81h-7.664Z" transform="translate(-57.964 -13.75)" fill="#1ea2ff"/>
    </g>
  </g>
</svg>
