<svg xmlns="http://www.w3.org/2000/svg" width="132" height="133" viewBox="0 0 132 133">
  <g id="Group_1407" data-name="Group 1407" transform="translate(-718 -3448)">
    <rect id="Rectangle_166" data-name="Rectangle 166" width="132" height="133" rx="12" transform="translate(718 3448)" fill="#1ea2ff"/>
    <g id="Group_1401" data-name="Group 1401" transform="translate(689.744 3528.313)">
      <g id="Group_1400" data-name="Group 1400">
        <path id="Path_1531" data-name="Path 1531" d="M112.5-57.313a3.044,3.044,0,0,1,2.081,3.276c-.04,8.856-.019,17.713-.019,26.57v1.156h2.79c.451,0,.9-.011,1.355,0a2.669,2.669,0,0,1,2.768,2.782c.017.818.021,1.637,0,2.454a2.6,2.6,0,0,1-2.668,2.693q-8.216.031-16.429,0a2.542,2.542,0,0,1-2.609-2.557c-.036-.9-.033-1.805-.006-2.707a2.6,2.6,0,0,1,2.7-2.658c1.349-.033,2.7-.007,4.108-.007V-44.354c-.064,0-.133-.022-.163,0-1.829,1.51-2.9,1.456-4.6-.237-.479-.478-.98-.939-1.423-1.448a2.51,2.51,0,0,1,.016-3.53c2.321-2.386,4.694-4.723,7.069-7.055a5.709,5.709,0,0,1,1.138-.692Z" fill="#fff"/>
        <path id="Path_1532" data-name="Path 1532" d="M122.811,10.047q0,8.127,0,16.253c0,2.283-.966,3.251-3.237,3.251q-9.022,0-18.045,0c-2.187,0-3.168-.96-3.169-3.134q-.008-16.38,0-32.759c0-2.136.975-3.12,3.093-3.123q9.108-.013,18.215,0c2.161,0,3.141,1,3.143,3.176Q122.815,1.877,122.811,10.047ZM106.34-.677V20.708h8.47V-.677Z" fill="#fff"/>
        <path id="Path_1533" data-name="Path 1533" d="M90.711-37.781q0,8.042,0,16.082c0,2.417-.912,3.331-3.313,3.331q-8.979,0-17.959,0c-2.171,0-3.18-.99-3.18-3.137q0-16.294,0-32.589c0-2.113.993-3.11,3.115-3.112q9.106-.012,18.213,0c2.171,0,3.121.971,3.123,3.175Q90.716-45.908,90.711-37.781Zm-7.985,10.6V-48.4H74.252V-27.18Z" fill="#fff"/>
        <path id="Path_1534" data-name="Path 1534" d="M82.493,21.609c1.36,0,2.624-.007,3.888,0A2.718,2.718,0,0,1,89.4,24.579c.013.733.025,1.467,0,2.2a2.656,2.656,0,0,1-2.864,2.77q-8,.015-16,0a2.649,2.649,0,0,1-2.88-2.75c-.036-.816-.038-1.637,0-2.453a2.658,2.658,0,0,1,2.822-2.732c1.3-.026,2.6-.021,3.894-.031.023,0,.047-.024.124-.067V3.285c-.251.2-.455.36-.657.523a2.552,2.552,0,0,1-3.472-.038,27.881,27.881,0,0,1-2.039-2.029,2.479,2.479,0,0,1-.043-3.523q3.5-3.62,7.129-7.115c1.022-.985,4.938-.977,6.05-.1A2.9,2.9,0,0,1,82.5-6.529q-.014,10.449-.005,20.9Z" fill="#fff"/>
      </g>
    </g>
  </g>
</svg>
